<svg xmlns="http://www.w3.org/2000/svg" viewBox="0 0 640 480" enable-background="new 0 0 640 480"><style type="text/css">.st0{fill:#000066;} .st1{fill:#FFFFFF;} .st2{fill:#CC0000;}</style><path class="st0" d="M0 0h640v480h-640v-480z"/><path class="st1" d="M0 0v28l307 222h38.7v-28l-307-222h-38.7zm345.7 0v28l-307 222h-38.7v-28l307-222h38.7zM144 0v250h57.6v-250h-57.6zm-144 83.3v83.4h345.7v-83.4h-345.7z"/><path class="st2" d="M0 100v50h345.7v-50h-345.7zm155.6-100v250h34.4v-250h-34.5.1zm-155.6 250l115.2-83.3h25.8l-115.2 83.3h-25.8zm0-250l115.2 83.3h-25.7l-89.5-64.7v-18.6zm204.7 83.3l115.2-83.3h25.8l-115.2 83.3h-25.8zm141 166.7l-115.2-83.3h25.7l89.5 64.7v18.6z"/><path class="st1" d="M299.8 392.5l-43.7 3.8 6 43.4-30.1-31.7-30.1 31.7 6-43.4-43.7-3.8 37.7-22.3-24.3-36.5 41 15.5 13.4-41.7 13.5 41.7 41-15.5-24.3 36.5m224.4 62.3l-10.6-15.8 17.8 6.7 5.8-18.1 5.8 18.1 17.8-6.7-10.5 15.8 16.4 9.7-19 1.7 2.6 18.9-13-13.9-13.2 13.9 2.6-18.9-19-1.6m16.4-291.9l-10.5-15.8 17.8 6.7 5.8-18.1 5.8 18.1 17.8-6.7-10.5 15.8 16.4 9.8-19 1.6 2.6 18.9-13-13.8-13.2 13.7 2.6-18.8-19-1.6m-89.3 104.8l-10.5-15.8 17.8 6.7 5.8-18.1 5.9 18.1 17.8-6.7-10.6 15.8 16.4 9.7-19 1.7 2.7 18.9-13.2-13.9-13 13.9 2.5-18.9-19-1.6m216.3-38l-10.7-15.8 17.8 6.7 5.8-18.1 5.9 18.1 17.8-6.7-10.5 15.8 16.3 9.7-19 1.7 2.6 18.8-13-13.8-13.2 13.8 2.6-18.8-19-1.7m-22.1 73.5l-10.3 6.5 2.9-11.9-9.3-7.8 12.1-1 4.6-11.2 4.7 11.3 12.1.9-9.3 7.8 2.9 11.9"/></svg>