<svg xmlns="http://www.w3.org/2000/svg" width="18" viewBox="0 0 640 480" enable-background="new 0 0 640 480"><style type="text/css">.st0{fill:none;} .st1{fill:#000066;} .st2{fill:#FFFFFF;} .st3{fill:#CC0000;}</style><path class="st0" d="M639 134.4v57.6h1v-111.7l-1 .5zM639 320v43.400000000000006l1 .5v-75.9h-1z"/><path class="st1" d="M0 133.7v26.3h52.6zM240.1 0h-240.1v26.4l240.1 120zM587.6 160h51.4v-25.6zM0 320v26.3l52.6-26.3zM0 453.6v26.4h240.1v-146.4zM639 27.1v-27.1h-238.8v146.4zM587.6 320l51.4 25.6v-25.6zM400.2 480h238.8v-27.1l-238.8-119.3z"/><path class="st2" d="M552 320l87 43.4v-17.8l-51.4-25.6h51.4v-32h-270.8v192h32v-146.4l238.8 119.3v-53.7l-158.7-79.2zM0 288v32h52.6l-52.6 26.3v53.6l159.9-79.9h71.7l-231.6 115.7v17.9l240.1-120v146.4h32v-192zM639 192v-32h-51.4l51.4-25.6v-53.6l-158.7 79.2h-71.6l230.3-115v-17.9l-238.8 119.3v-146.4h-32v192zM272.1 0h-32v146.4l-240.1-120v53.7l159.9 79.9h-71.6l-88.3-44.1v17.8l52.6 26.3h-52.6v32h272.1z"/><path class="st3" d="M640 80.3v-35.8l-1 .5v35.8zM480.3 160l158.7-79.2v-35.8l-230.3 115zM639 363.4v35.8l1 .5v-35.8zM552 320h-71.7l158.7 79.2v-35.8zM159.9 320l-159.9 79.9v35.8l231.6-115.7zM159.9 160l-159.9-79.9v35.8l88.3 44.1zM639 192h1v96h-1zM639 288v-96h-270.8v-192h-96.1v192h-272.1v96h272.1v192h96.1v-192z"/></svg>