<svg xmlns="http://www.w3.org/2000/svg" width="18"  viewBox="0 0 640 480" enable-background="new 0 0 640 480"><style type="text/css">.st0{fill:#D10B1E;} .st1{fill:#FFFFFF;} .st2{fill:#061D66;}</style><path class="st0" d="M0 0h640v36.9h-640v-36.9zm0 73.9h640v36.9h-640v-36.9zm0 73.8h640v37h-640v-37zm0 73.8h640v36.9h-640v-36.9zm0 73.9h640v36.9h-640v-36.9zm0 73.8h640v36.9h-640v-36.9zm0 73.9h640v36.9h-640v-36.9z"/><path class="st1" d="M0 36.9h640v36.9h-640v-36.9zm0 73.9h640v36.8h-640v-36.8zm0 73.8h640v36.9h-640v-36.9zm0 73.9h640v36.9h-640v-36.9zm0 73.8h640v36.9h-640v-36.9zm0 73.8h640v36.9h-640v-36.9z"/><path class="st2" d="M0 0h364.8v258.5h-364.8v-258.5z"/><path class="st1" d="M30.4 11.1l3.4 10.2h10.7l-8.6 6.3 3.3 10.3-8.7-6.4-8.6 6.3 3.1-10.2-8.7-6.3h10.9l3.2-10.2zm60.8 0l3.3 10.2h10.8l-8.7 6.3 3.3 10.3-8.6-6.4-8.7 6.3 3.3-10.2-8.6-6.3h10.7l3.2-10.2zm60.8 0l3.4 10.2h10.6l-8.6 6.3 3.3 10.3-8.7-6.4-8.6 6.3 3.3-10.2-8.7-6.3h10.8l3.2-10.2zm60.8 0l3.3 10.2h10.8l-8.7 6.3 3.4 10.3-8.7-6.4-8.7 6.3 3.4-10.2-8.7-6.3h10.7l3.2-10.2zm60.8 0l3.4 10.2h10.7l-8.6 6.3 3.3 10.3-8.7-6.4-8.6 6.3 3.3-10.2-8.6-6.3h10.7l3.1-10.2zm60.8 0l3.3 10.2h10.8l-8.7 6.3 3.4 10.3-8.7-6.4-8.7 6.3 3.4-10.2-8.7-6.3h10.8l3.1-10.2zm-273.6 25.8l3.3 10.2h10.8l-8.7 6.3 3.2 10.2-8.4-6.3-8.7 6.3 3.1-10.2-8.4-6.3h10.7l3.1-10.2zm60.8 0l3.4 10.2h10.7l-8.7 6.3 3.4 10.2-8.7-6.3-8.7 6.3 3.4-10.2-8.7-6.3h10.8l3.1-10.2zm60.8 0l3.3 10.2h10.8l-8.7 6.3 3.3 10.2-8.6-6.3-8.7 6.3 3.3-10.2-8.6-6.3h10.7l3.2-10.2zm60.8 0l3.4 10.2h10.7l-8.7 6.3 3.4 10.2-8.7-6.3-8.6 6.3 3.3-10.2-8.7-6.3h10.7l3.2-10.2zm60.8 0l3.3 10.2h10.8l-8.7 6.3 3.3 10.2-8.6-6.3-8.7 6.3 3.3-10.2-8.6-6.3h10.7l3.2-10.2zm-273.6 25.8l3.4 10.4h10.7l-8.6 6.3 3.3 10.2-8.7-6.4-8.6 6.4 3.1-10.3-8.7-6.3h10.9l3.2-10.3zm60.8 0l3.3 10.3h10.8l-8.7 6.3 3.3 10.2-8.6-6.4-8.7 6.4 3.3-10.3-8.6-6.3h10.7l3.2-10.2zm60.8 0l3.4 10.3h10.6l-8.6 6.3 3.3 10.2-8.7-6.4-8.6 6.4 3.3-10.3-8.7-6.3h10.8l3.2-10.2zm60.8 0l3.3 10.3h10.8l-8.7 6.3 3.4 10.2-8.7-6.4-8.7 6.4 3.4-10.3-8.7-6.3h10.7l3.2-10.2zm60.8 0l3.4 10.3h10.7l-8.6 6.3 3.3 10.2-8.7-6.4-8.6 6.4 3.3-10.3-8.6-6.3h10.7l3.1-10.2zm60.8 0l3.3 10.3h10.8l-8.7 6.3 3.4 10.2-8.7-6.4-8.7 6.4 3.4-10.3-8.7-6.3h10.8l3.1-10.2zm-273.6 25.9l3.3 10.2h10.8l-8.7 6.3 3.3 10.3-8.6-6.4-8.7 6.3 3.3-10.2-8.6-6.3h10.7l3.2-10.2zm60.8 0l3.4 10.2h10.7l-8.7 6.3 3.4 10.3-8.7-6.4-8.7 6.3 3.4-10.2-8.7-6.3h10.8l3.1-10.2zm60.8 0l3.3 10.2h10.8l-8.7 6.3 3.3 10.3-8.6-6.4-8.7 6.3 3.3-10.2-8.6-6.3h10.7l3.2-10.2zm60.8 0l3.4 10.2h10.7l-8.6 6.3 3.3 10.3-8.7-6.4-8.6 6.3 3.3-10.2-8.7-6.3h10.7l3.2-10.2zm60.8 0l3.3 10.2h10.8l-8.7 6.3 3.3 10.3-8.7-6.4-8.7 6.3 3.3-10.2-8.6-6.3h10.7l3.3-10.2zm-273.6 25.9l3.4 10.2h10.7l-8.6 6.3 3.3 10.3-8.7-6.4-8.6 6.3 3.1-10.2-8.7-6.3h10.9l3.2-10.2zm60.8 0l3.3 10.2h10.8l-8.7 6.3 3.3 10.2-8.6-6.3-8.7 6.3 3.3-10.2-8.6-6.3h10.7l3.2-10.2zm60.8 0l3.4 10.2h10.6l-8.6 6.3 3.3 10.3-8.7-6.4-8.6 6.3 3.3-10.2-8.7-6.3h10.8l3.2-10.2zm60.8 0l3.3 10.2h10.8l-8.7 6.3 3.4 10.3-8.7-6.4-8.7 6.3 3.4-10.2-8.7-6.3h10.7l3.2-10.2zm60.8 0l3.4 10.2h10.7l-8.7 6.3 3.3 10.3-8.7-6.4-8.6 6.3 3.3-10.2-8.6-6.3h10.7l3.2-10.2zm60.8 0l3.3 10.2h10.8l-8.7 6.3 3.4 10.3-8.7-6.4-8.7 6.3 3.4-10.2-8.7-6.3h10.8l3.1-10.2zm-273.6 25.8l3.3 10.2h10.8l-8.7 6.3 3.3 10.2-8.6-6.4-8.7 6.4 3.3-10.3-8.6-6.3h10.7l3.2-10.1zm60.8 0l3.4 10.2h10.7l-8.7 6.3 3.4 10.2-8.7-6.4-8.7 6.4 3.4-10.3-8.7-6.3h10.8l3.1-10.1zm60.8 0l3.3 10.2h10.8l-8.7 6.3 3.3 10.2-8.6-6.4-8.7 6.4 3.3-10.3-8.6-6.3h10.7l3.2-10.1zm60.8 0l3.4 10.2h10.7l-8.6 6.3 3.3 10.2-8.7-6.4-8.6 6.4 3.3-10.3-8.7-6.3h10.7l3.2-10.1zm60.8 0l3.3 10.2h10.8l-8.7 6.3 3.3 10.2-8.6-6.4-8.7 6.4 3.3-10.3-8.6-6.3h10.7l3.2-10.1zm-273.6 25.8l3.4 10.3h10.7l-8.6 6.3 3.3 10.1-8.7-6.3-8.6 6.3 3.3-10.2-8.7-6.3h10.9l3-10.2zm60.8 0l3.3 10.3h10.8l-8.7 6.3 3.4 10.1-8.7-6.3-8.7 6.3 3.4-10.2-8.7-6.3h10.7l3.2-10.2zm60.8 0l3.4 10.3h10.6l-8.6 6.3 3.3 10.1-8.7-6.3-8.6 6.3 3.3-10.2-8.7-6.3h10.8l3.2-10.2zm60.8 0l3.3 10.3h10.8l-8.7 6.3 3.4 10.1-8.7-6.3-8.7 6.3 3.4-10.2-8.7-6.3h10.7l3.2-10.2zm60.8 0l3.4 10.3h10.7l-8.6 6.3 3.3 10.1-8.7-6.3-8.6 6.3 3.3-10.2-8.6-6.3h10.7l3.1-10.2zm60.8 0l3.3 10.3h10.8l-8.7 6.3 3.4 10.1-8.7-6.3-8.7 6.3 3.4-10.2-8.7-6.3h10.8l3.1-10.2zm-273.6 25.9l3.3 10.2h10.8l-8.7 6.3 3.3 10.3-8.6-6.4-8.7 6.3 3.3-10.2-8.6-6.3h10.7l3.2-10.2zm60.8 0l3.4 10.2h10.7l-8.7 6.3 3.4 10.3-8.7-6.4-8.7 6.3 3.4-10.2-8.7-6.3h10.8l3.1-10.2zm60.8 0l3.3 10.2h10.8l-8.7 6.3 3.3 10.3-8.6-6.4-8.7 6.3 3.3-10.2-8.6-6.3h10.7l3.2-10.2zm60.8 0l3.4 10.2h10.7l-8.6 6.3 3.3 10.3-8.7-6.4-8.6 6.3 3.3-10.2-8.7-6.3h10.7l3.2-10.2zm60.8 0l3.3 10.2h10.8l-8.7 6.3 3.3 10.3-8.6-6.4-8.7 6.3 3.3-10.2-8.6-6.3h10.7l3.2-10.2zm-273.6 25.9l3.4 10.2h10.7l-8.6 6.3 3.3 10.2-8.7-6.3-8.6 6.3 3.3-10.3-8.7-6.3h10.9l3-10.1zm60.8 0l3.3 10.2h10.8l-8.7 6.3 3.4 10.2-8.7-6.3-8.7 6.3 3.4-10.3-8.7-6.3h10.7l3.2-10.1zm60.8 0l3.4 10.2h10.6l-8.4 6.3 3.3 10.2-8.7-6.3-8.6 6.3 3.3-10.3-8.9-6.3h10.8l3.2-10.1zm60.8 0l3.3 10.2h10.8l-8.7 6.3 3.4 10.2-8.7-6.3-8.7 6.3 3.4-10.3-8.7-6.3h10.7l3.2-10.1zm60.8 0l3.4 10.2h10.7l-8.6 6.3 3.3 10.2-8.7-6.3-8.6 6.3 3.3-10.3-8.6-6.3h10.7l3.1-10.1zm60.8 0l3.3 10.2h10.8l-8.7 6.3 3.4 10.2-8.7-6.3-8.7 6.3 3.4-10.3-8.7-6.3h10.8l3.1-10.1z"/></svg>