<svg xmlns="http://www.w3.org/2000/svg" viewBox="0 0 1000 1000" enable-background="new 0 0 1000 1000"><style>.st0 {fill:#ffffff;}</style><path class="st0" d="M476.67 11.13c-59.72 8.5-118.65 45.09-155.24 97.1-19.38 27.49-34.8 64.66-42.12 101.84-4.94 24.12-4.94 72.38 0 96.7 18.59 94.13 82.07 167.69 165.72 191.62 53.78 15.43 106.19 10.68 156.81-14.44 64.27-32.04 107.97-88.2 127.16-163.94 4.94-19.58 5.34-24.13 5.34-61.7 0-37.37-.59-42.12-5.34-61.7-9.3-36.39-22.74-65.26-44.1-94.33-33.22-45.09-82.26-76.92-136.05-88.4-17.41-3.54-55.37-5.12-72.18-2.75zM258.15 536.36c-40.54 7.32-80.88 31.24-107.58 64.07-13.05 15.82-28.87 47.07-34.61 68.22-4.35 15.62-4.55 18-5.14 168.49l-.59 152.86h779.54l-.79-153.85c-.59-152.86-.59-153.66-5.14-169.48-18.39-64.26-64.07-110.54-126.76-127.94-12.66-3.56-22.15-4.15-64.47-4.94l-49.44-.99-22.74 11.07c-13.84 6.72-30.26 12.85-42.32 15.82-65.65 16.42-143.96 8.9-194.19-18.79l-14.24-7.71-48.05.2c-32.04 0-53.2 1.19-63.48 2.97z"/></svg>