<svg xmlns="http://www.w3.org/2000/svg" viewBox="0 0 1000 1000" enable-background="new 0 0 1000 1000"><style type="text/css">.st0{fill:#6E6A6D;}</style><path class="st0" d="M926.6 377.5h-54.9c-33.7 0-63.2-28.5-65.5-61.2 0-174.8-140.9-306.3-317-306.3h-160.5c-175.9 0-318.6 141.6-318.7 316.5v347.2c0 174.8 142.8 316.3 318.7 316.3h343c176 0 318.3-141.5 318.3-316.3v-224.3c0-35-28.2-71.9-63.4-71.9zm-610.3-122.5h183.7c33.7 0 61.3 27.6 61.3 61.2 0 33.7-27.6 61.3-61.3 61.3h-183.7c-33.7 0-61.2-27.6-61.2-61.2-.1-33.7 27.5-61.3 61.2-61.3zm367.5 490h-367.5c-33.7 0-61.2-27.6-61.2-61.2 0-33.7 27.6-61.3 61.2-61.3h367.5c33.7 0 61.2 27.6 61.2 61.3 0 33.6-27.6 61.2-61.2 61.2z"/></svg>