<svg version="1.1" xmlns="http://www.w3.org/2000/svg" xmlns:xlink="http://www.w3.org/1999/xlink" xml:space="preserve" xmlns:serif="http://www.serif.com/" style="fill-rule:evenodd;clip-rule:evenodd;stroke-linejoin:round;stroke-miterlimit:2;" viewBox="205.8 393.35 3099.4 1689.32"><g><g id="_1703377203264"><path d="M2899.68,2004.73c-0.269,23.952 -5.787,42.656 -16.551,56.112c-11.707,14.533 -28.191,21.799 -49.452,21.799c-21.261,0 -37.812,-7.266 -49.653,-21.799c-11.034,-13.86 -16.551,-32.564 -16.551,-56.112c-0,-11.169 1.345,-21.261 4.036,-30.277c2.692,-9.015 6.594,-17.022 11.707,-24.019c6.056,-7.401 13.356,-13.153 21.9,-17.257c8.545,-4.105 18.065,-6.157 28.561,-6.157c10.63,0 20.151,2.019 28.561,6.056c8.41,4.037 15.643,9.89 21.698,17.56c5.248,7.266 9.217,15.374 11.909,24.322c2.691,8.948 3.969,18.872 3.835,29.772Zm204.668,72.663c-2.153,-0.672 -3.027,-1.883 -2.624,-3.633l0.808,-9.285c0.269,-1.076 0.706,-1.816 1.312,-2.22c0.605,-0.404 1.312,-0.336 2.119,0.202c4.71,2.557 9.453,4.407 14.23,5.551c4.777,1.143 10.26,1.715 16.45,1.715c9.823,0 17.863,-2.691 24.121,-8.073c6.257,-5.383 9.385,-12.986 9.385,-22.809c0,-3.902 -1.514,-7.804 -4.541,-11.706c-3.028,-3.903 -7.233,-7.603 -12.615,-11.102c-4.71,-2.96 -10.025,-6.055 -15.946,-9.285c-5.921,-3.229 -11.572,-6.761 -16.955,-10.596c-5.382,-3.835 -9.89,-8.141 -13.523,-12.918c-3.634,-4.777 -5.45,-10.328 -5.45,-16.652c-0,-6.459 1.346,-12.145 4.037,-17.056c2.691,-4.912 6.291,-9.016 10.798,-12.313c4.508,-3.296 9.655,-5.819 15.441,-7.569c5.787,-1.749 11.707,-2.624 17.763,-2.624c5.247,0 9.89,0.303 13.927,0.909c4.037,0.605 8.41,1.648 13.119,3.128c2.019,0.673 2.826,1.884 2.423,3.633l-1.615,7.872c-0.404,2.288 -1.548,2.893 -3.431,1.817c-3.768,-1.749 -7.435,-2.927 -11.001,-3.532c-3.566,-0.606 -8.107,-0.909 -13.624,-0.909c-4.441,0 -8.646,0.539 -12.615,1.615c-3.97,1.077 -7.401,2.691 -10.294,4.844c-2.894,2.153 -5.215,4.845 -6.964,8.074c-1.749,3.23 -2.624,7.065 -2.624,11.505c-0,3.499 1.177,6.795 3.532,9.89c2.355,3.095 5.248,5.988 8.679,8.68c3.432,2.691 7.132,5.147 11.102,7.367c3.969,2.22 7.569,4.272 10.798,6.156c4.441,2.557 8.747,5.181 12.918,7.872c4.172,2.691 7.872,5.719 11.102,9.083c3.229,3.364 5.853,7.064 7.872,11.101c2.018,4.037 3.027,8.68 3.027,13.927c0,6.729 -1.379,12.717 -4.138,17.964c-2.758,5.248 -6.425,9.689 -11,13.322c-4.575,3.633 -9.857,6.425 -15.845,8.377c-5.988,1.951 -12.211,2.926 -18.67,2.926c-5.921,0 -11.202,-0.403 -15.845,-1.211c-4.642,-0.807 -9.856,-2.153 -15.643,-4.037Zm-1746.55,0c-2.153,-0.672 -3.027,-1.883 -2.624,-3.633l0.808,-9.285c0.269,-1.076 0.706,-1.816 1.312,-2.22c0.605,-0.404 1.312,-0.336 2.119,0.202c4.71,2.557 9.453,4.407 14.23,5.551c4.777,1.143 10.26,1.715 16.45,1.715c9.823,0 17.863,-2.691 24.12,-8.073c6.258,-5.383 9.386,-12.986 9.386,-22.809c0,-3.902 -1.514,-7.804 -4.541,-11.706c-3.028,-3.903 -7.233,-7.603 -12.616,-11.102c-4.709,-2.96 -10.024,-6.055 -15.945,-9.285c-5.921,-3.229 -11.572,-6.761 -16.955,-10.596c-5.382,-3.835 -9.89,-8.141 -13.523,-12.918c-3.634,-4.777 -5.45,-10.328 -5.45,-16.652c-0,-6.459 1.345,-12.145 4.037,-17.056c2.691,-4.912 6.29,-9.016 10.798,-12.313c4.508,-3.296 9.655,-5.819 15.441,-7.569c5.786,-1.749 11.707,-2.624 17.762,-2.624c5.248,0 9.891,0.303 13.928,0.909c4.036,0.605 8.41,1.648 13.119,3.128c2.019,0.673 2.826,1.884 2.423,3.633l-1.615,7.872c-0.404,2.288 -1.548,2.893 -3.432,1.817c-3.767,-1.749 -7.434,-2.927 -11,-3.532c-3.566,-0.606 -8.107,-0.909 -13.624,-0.909c-4.441,0 -8.646,0.539 -12.616,1.615c-3.969,1.077 -7.4,2.691 -10.294,4.844c-2.893,2.153 -5.214,4.845 -6.963,8.074c-1.749,3.23 -2.624,7.065 -2.624,11.505c-0,3.499 1.177,6.795 3.532,9.89c2.355,3.095 5.248,5.988 8.679,8.68c3.432,2.691 7.132,5.147 11.102,7.367c3.969,2.22 7.569,4.272 10.798,6.156c4.441,2.557 8.747,5.181 12.918,7.872c4.172,2.691 7.872,5.719 11.102,9.083c3.229,3.364 5.853,7.064 7.872,11.101c2.018,4.037 3.027,8.68 3.027,13.927c0,6.729 -1.379,12.717 -4.138,17.964c-2.758,5.248 -6.425,9.689 -11,13.322c-4.575,3.633 -9.857,6.425 -15.845,8.377c-5.988,1.951 -12.211,2.926 -18.67,2.926c-5.921,0 -11.202,-0.403 -15.845,-1.211c-4.642,-0.807 -9.857,-2.153 -15.643,-4.037Zm-846.731,0c-2.153,-0.672 -3.027,-1.883 -2.624,-3.633l0.808,-9.285c0.269,-1.076 0.706,-1.816 1.312,-2.22c0.605,-0.404 1.312,-0.336 2.119,0.202c4.71,2.557 9.453,4.407 14.23,5.551c4.777,1.143 10.26,1.715 16.45,1.715c9.823,0 17.863,-2.691 24.12,-8.073c6.257,-5.383 9.386,-12.986 9.386,-22.809c-0,-3.902 -1.514,-7.804 -4.542,-11.706c-3.027,-3.903 -7.232,-7.603 -12.615,-11.102c-4.709,-2.96 -10.025,-6.055 -15.945,-9.285c-5.921,-3.229 -11.573,-6.761 -16.955,-10.596c-5.383,-3.835 -9.89,-8.141 -13.524,-12.918c-3.633,-4.777 -5.449,-10.328 -5.449,-16.652c-0,-6.459 1.345,-12.145 4.037,-17.056c2.691,-4.912 6.29,-9.016 10.798,-12.313c4.508,-3.296 9.655,-5.819 15.441,-7.569c5.786,-1.749 11.707,-2.624 17.762,-2.624c5.248,0 9.891,0.303 13.927,0.909c4.037,0.605 8.411,1.648 13.12,3.128c2.019,0.673 2.826,1.884 2.422,3.633l-1.614,7.872c-0.404,2.288 -1.548,2.893 -3.432,1.817c-3.767,-1.749 -7.434,-2.927 -11,-3.532c-3.566,-0.606 -8.108,-0.909 -13.625,-0.909c-4.44,0 -8.645,0.539 -12.615,1.615c-3.969,1.077 -7.401,2.691 -10.294,4.844c-2.893,2.153 -5.214,4.845 -6.963,8.074c-1.75,3.23 -2.624,7.065 -2.624,11.505c-0,3.499 1.177,6.795 3.532,9.89c2.355,3.095 5.248,5.988 8.679,8.68c3.432,2.691 7.132,5.147 11.102,7.367c3.969,2.22 7.569,4.272 10.798,6.156c4.441,2.557 8.747,5.181 12.918,7.872c4.172,2.691 7.872,5.719 11.101,9.083c3.23,3.364 5.854,7.064 7.872,11.101c2.019,4.037 3.028,8.68 3.028,13.927c0,6.729 -1.379,12.717 -4.138,17.964c-2.758,5.248 -6.425,9.689 -11,13.322c-4.575,3.633 -9.857,6.425 -15.845,8.377c-5.988,1.951 -12.211,2.926 -18.67,2.926c-5.921,0 -11.203,-0.403 -15.845,-1.211c-4.642,-0.807 -9.857,-2.153 -15.643,-4.037Zm1582.85,-72.663c-0.27,23.952 -5.787,42.656 -16.552,56.112c-11.706,14.533 -28.19,21.799 -49.451,21.799c-21.261,0 -37.812,-7.266 -49.653,-21.799c-11.035,-13.86 -16.552,-32.564 -16.552,-56.112c0,-11.169 1.346,-21.261 4.037,-30.277c2.692,-9.015 6.594,-17.022 11.707,-24.019c6.055,-7.401 13.355,-13.153 21.9,-17.257c8.545,-4.105 18.065,-6.157 28.561,-6.157c10.63,0 20.151,2.019 28.561,6.056c8.41,4.037 15.643,9.89 21.698,17.56c5.248,7.266 9.217,15.374 11.909,24.322c2.691,8.948 3.969,18.872 3.835,29.772Zm-1712.64,22.606c0,12.784 3.297,22.876 9.89,30.277c7.401,8.208 17.292,12.312 29.671,12.312c12.649,0 22.674,-4.104 30.075,-12.312c3.364,-3.633 5.82,-7.973 7.367,-13.019c1.548,-5.046 2.321,-10.799 2.321,-17.258l0,-94.866c0,-1.884 0.942,-2.826 2.826,-2.826l9.285,0c1.884,0 2.826,0.942 2.826,2.826l-0,94.866c-0,9.823 -1.615,18.469 -4.844,25.937c-3.23,7.468 -7.872,13.557 -13.928,18.267c-9.823,7.401 -21.799,11.101 -35.928,11.101c-13.994,0 -25.903,-3.7 -35.726,-11.101c-12.514,-9.285 -18.771,-24.019 -18.771,-44.204l-0,-94.866c-0,-1.884 0.942,-2.826 2.826,-2.826l9.284,0c1.884,0 2.826,0.942 2.826,2.826l0,94.866Zm1758.66,49.25c-0,1.884 -0.942,2.826 -2.826,2.826l-9.083,-0c-1.884,-0 -2.826,-0.942 -2.826,-2.826l0,-141.29c0,-2.826 0.236,-4.474 0.707,-4.945c0.471,-0.471 2.119,-0.707 4.945,-0.707l9.285,0c1.749,0 2.926,0.169 3.532,0.505c0.605,0.336 1.245,1.11 1.917,2.321l76.095,130.593l0,-130.593c0,-1.884 0.942,-2.826 2.826,-2.826l8.881,0c1.884,0 2.826,0.942 2.826,2.826l-0,141.29c-0,2.826 -0.236,4.474 -0.707,4.945c-0.471,0.471 -2.119,0.707 -4.945,0.707l-12.312,-0c-1.077,-0 -1.85,-0.135 -2.321,-0.404c-0.471,-0.269 -1.043,-0.942 -1.716,-2.018l-74.278,-128.372l-0,127.968Zm-865.503,0c0.673,1.884 0.067,2.826 -1.816,2.826l-9.689,-0c-0.807,-0 -1.514,-0.135 -2.119,-0.404c-0.606,-0.269 -1.178,-1.076 -1.716,-2.422l-14.936,-37.139l-75.893,-0c-2.557,6.324 -5.046,12.514 -7.468,18.569c-2.423,6.056 -4.845,12.246 -7.267,18.57c-0.538,1.346 -1.11,2.153 -1.715,2.422c-0.606,0.269 -1.312,0.404 -2.12,0.404l-9.486,-0c-1.884,-0 -2.49,-0.942 -1.817,-2.826l59.342,-144.52c0.673,-1.614 1.884,-2.422 3.633,-2.422l12.312,0c1.75,0 2.961,0.808 3.634,2.422l57.121,144.52Zm1121.04,0c0.673,1.884 0.067,2.826 -1.817,2.826l-9.688,-0c-0.807,-0 -1.514,-0.135 -2.119,-0.404c-0.606,-0.269 -1.178,-1.076 -1.716,-2.422l-14.936,-37.139l-75.893,-0c-2.557,6.324 -5.047,12.514 -7.469,18.569c-2.422,6.056 -4.844,12.246 -7.266,18.57c-0.538,1.346 -1.11,2.153 -1.716,2.422c-0.605,0.269 -1.312,0.404 -2.119,0.404l-9.487,-0c-1.883,-0 -2.489,-0.942 -1.816,-2.826l59.342,-144.52c0.672,-1.614 1.883,-2.422 3.633,-2.422l12.312,0c1.75,0 2.961,0.808 3.633,2.422l57.122,144.52Zm-599.877,0c0.673,1.884 0.067,2.826 -1.817,2.826l-9.688,-0c-0.808,-0 -1.514,-0.135 -2.12,-0.404c-0.605,-0.269 -1.177,-1.076 -1.715,-2.422l-14.937,-37.139l-75.893,-0c-2.556,6.324 -5.046,12.514 -7.468,18.569c-2.422,6.056 -4.844,12.246 -7.266,18.57c-0.538,1.346 -1.11,2.153 -1.716,2.422c-0.605,0.269 -1.312,0.404 -2.119,0.404l-9.487,-0c-1.884,-0 -2.489,-0.942 -1.816,-2.826l59.341,-144.52c0.673,-1.614 1.884,-2.422 3.634,-2.422l12.312,0c1.749,0 2.96,0.808 3.633,2.422l57.122,144.52Zm-678.193,0c0,1.884 -0.942,2.826 -2.825,2.826l-9.689,-0c-1.884,-0 -2.826,-0.942 -2.826,-2.826l0,-143.712c0,-1.884 0.942,-2.826 2.826,-2.826l9.689,0c1.883,0 2.825,0.942 2.825,2.826l0,143.712Zm-775.278,0c0.672,1.884 0.067,2.826 -1.817,2.826l-9.688,-0c-0.808,-0 -1.514,-0.135 -2.12,-0.404c-0.605,-0.269 -1.177,-1.076 -1.715,-2.422l-14.937,-37.139l-75.893,-0c-2.556,6.324 -5.046,12.514 -7.468,18.569c-2.422,6.056 -4.844,12.246 -7.266,18.57c-0.539,1.346 -1.11,2.153 -1.716,2.422c-0.606,0.269 -1.312,0.404 -2.119,0.404l-9.487,-0c-1.884,-0 -2.489,-0.942 -1.817,-2.826l59.342,-144.52c0.673,-1.614 1.884,-2.422 3.633,-2.422l12.313,0c1.749,0 2.96,0.808 3.633,2.422l57.122,144.52Zm1197.94,0c-0,1.884 -0.942,2.826 -2.826,2.826l-9.083,-0c-1.884,-0 -2.826,-0.942 -2.826,-2.826l-0,-141.29c-0,-2.826 0.235,-4.474 0.706,-4.945c0.471,-0.471 2.12,-0.707 4.946,-0.707l9.284,0c1.75,0 2.927,0.169 3.533,0.505c0.605,0.336 1.244,1.11 1.917,2.321l76.095,130.593l-0,-130.593c-0,-1.884 0.942,-2.826 2.826,-2.826l8.881,0c1.884,0 2.826,0.942 2.826,2.826l-0,141.29c-0,2.826 -0.236,4.474 -0.707,4.945c-0.471,0.471 -2.119,0.707 -4.945,0.707l-12.312,-0c-1.077,-0 -1.851,-0.135 -2.322,-0.404c-0.471,-0.269 -1.042,-0.942 -1.715,-2.018l-74.278,-128.372l-0,127.968Zm392.786,0c-0,1.884 -0.942,2.826 -2.826,2.826l-9.688,-0c-1.884,-0 -2.826,-0.942 -2.826,-2.826l-0,-143.712c-0,-1.884 0.942,-2.826 2.826,-2.826l9.688,0c1.884,0 2.826,0.942 2.826,2.826l-0,143.712Zm1139,0c-0,1.884 -0.942,2.826 -2.826,2.826l-9.689,-0c-1.883,-0 -2.825,-0.942 -2.825,-2.826l-0,-143.712c-0,-1.884 0.942,-2.826 2.825,-2.826l9.689,0c1.884,0 2.826,0.942 2.826,2.826l-0,143.712Zm-40.571,0c0.269,0.673 0.269,1.312 0,1.918c-0.269,0.605 -0.807,0.908 -1.614,0.908l-10.496,-0c-2.019,-0 -3.499,-0.942 -4.441,-2.826c-6.055,-12.649 -11.101,-22.976 -15.138,-30.983c-4.037,-8.006 -7.199,-14.364 -9.487,-19.074c-2.826,-5.517 -4.979,-9.756 -6.459,-12.716c-3.095,0.673 -5.954,1.076 -8.578,1.211c-2.624,0.134 -5.954,0.269 -9.991,0.404l-16.955,-0l-0,61.158c-0,1.884 -0.942,2.826 -2.826,2.826l-9.083,-0c-1.884,-0 -2.826,-0.942 -2.826,-2.826l0,-140.483c0,-1.48 0.034,-2.624 0.101,-3.431c0.068,-0.807 0.303,-1.413 0.707,-1.817c0.403,-0.403 1.009,-0.639 1.816,-0.706c0.808,-0.067 1.952,-0.101 3.432,-0.101l38.148,0c7.67,0 14.297,1.043 19.882,3.129c5.584,2.085 10.226,5.012 13.927,8.78c3.7,3.768 6.459,8.343 8.275,13.725c1.817,5.383 2.725,11.371 2.725,17.964c0,4.037 -0.706,7.872 -2.119,11.505c-1.413,3.633 -3.331,6.997 -5.753,10.092c-2.422,3.095 -5.214,5.887 -8.376,8.377c-3.162,2.489 -6.426,4.541 -9.79,6.156l34.919,66.81Zm-1953.44,-9.89c1.884,-0 2.826,0.942 2.826,2.826l-0,7.064c-0,1.884 -0.942,2.826 -2.826,2.826l-65.397,-0c-1.884,-0 -3.33,-0.034 -4.34,-0.101c-1.009,-0.067 -1.749,-0.337 -2.22,-0.807c-0.471,-0.471 -0.74,-1.245 -0.807,-2.322c-0.068,-1.076 -0.101,-2.556 -0.101,-4.44l-0,-138.868c-0,-1.884 0.942,-2.826 2.826,-2.826l9.284,0c1.884,0 2.826,0.942 2.826,2.826l0,133.822l57.929,-0Zm1414.31,-0c1.884,-0 2.826,0.942 2.826,2.826l-0,7.064c-0,1.884 -0.942,2.826 -2.826,2.826l-65.397,-0c-1.884,-0 -3.331,-0.034 -4.34,-0.101c-1.009,-0.067 -1.749,-0.337 -2.22,-0.807c-0.471,-0.471 -0.74,-1.245 -0.808,-2.322c-0.067,-1.076 -0.101,-2.556 -0.101,-4.44l0,-138.868c0,-1.884 0.942,-2.826 2.826,-2.826l9.285,0c1.884,0 2.826,0.942 2.826,2.826l-0,133.822l57.929,-0Zm255.735,-0c1.884,-0 2.826,0.942 2.826,2.826l-0,7.064c-0,1.884 -0.942,2.826 -2.826,2.826l-65.397,-0c-1.884,-0 -3.331,-0.034 -4.34,-0.101c-1.009,-0.067 -1.749,-0.337 -2.22,-0.807c-0.471,-0.471 -0.74,-1.245 -0.808,-2.322c-0.067,-1.076 -0.101,-2.556 -0.101,-4.44l0,-138.868c0,-1.884 0.942,-2.826 2.826,-2.826l9.285,0c1.884,0 2.826,0.942 2.826,2.826l-0,133.822l57.929,-0Zm-160.062,9.89c0,1.884 -0.942,2.826 -2.826,2.826l-9.284,-0c-1.884,-0 -2.826,-0.942 -2.826,-2.826l-0,-140.685c-0,-2.96 0.235,-4.676 0.706,-5.147c0.471,-0.47 2.187,-0.706 5.147,-0.706l67.416,0c1.884,0 2.826,0.942 2.826,2.826l-0,6.863c-0,1.883 -0.942,2.825 -2.826,2.825l-58.333,0l0,53.489l55.507,-0c1.884,-0 2.826,0.942 2.826,2.825l-0,7.267c-0,1.884 -0.942,2.826 -2.826,2.826l-55.507,-0l0,67.617Zm-1606.67,0c0.673,1.884 0.068,2.826 -1.816,2.826l-9.689,-0c-0.807,-0 -1.513,-0.135 -2.119,-0.404c-0.606,-0.269 -1.177,-1.076 -1.716,-2.422l-14.936,-37.139l-75.893,-0c-2.557,6.324 -5.046,12.514 -7.468,18.569c-2.422,6.056 -4.844,12.246 -7.267,18.57c-0.538,1.346 -1.11,2.153 -1.715,2.422c-0.606,0.269 -1.312,0.404 -2.12,0.404l-9.486,-0c-1.884,-0 -2.49,-0.942 -1.817,-2.826l59.342,-144.52c0.673,-1.614 1.884,-2.422 3.633,-2.422l12.313,0c1.749,0 2.96,0.808 3.633,2.422l57.121,144.52Zm2279.21,-134.024l-0,134.024c-0,1.884 -0.942,2.826 -2.826,2.826l-9.285,-0c-1.883,-0 -2.825,-0.942 -2.825,-2.826l-0,-134.024l-41.58,0c-1.884,0 -2.826,-0.942 -2.826,-2.825l0,-6.863c0,-1.884 0.942,-2.826 2.826,-2.826l98.499,0c1.884,0 2.826,0.942 2.826,2.826l0,6.863c0,1.883 -0.942,2.825 -2.826,2.825l-41.983,0Zm-1407.86,0l0,134.024c0,1.884 -0.942,2.826 -2.825,2.826l-9.285,-0c-1.884,-0 -2.826,-0.942 -2.826,-2.826l0,-134.024l-41.58,0c-1.883,0 -2.825,-0.942 -2.825,-2.825l-0,-6.863c-0,-1.884 0.942,-2.826 2.825,-2.826l98.5,0c1.884,0 2.826,0.942 2.826,2.826l-0,6.863c-0,1.883 -0.942,2.825 -2.826,2.825l-41.984,0Zm-1020.11,134.024c0.269,0.673 0.269,1.312 0,1.918c-0.269,0.605 -0.807,0.908 -1.615,0.908l-10.495,-0c-2.019,-0 -3.499,-0.942 -4.441,-2.826c-6.055,-12.649 -11.101,-22.976 -15.138,-30.983c-4.037,-8.006 -7.199,-14.364 -9.487,-19.074c-2.826,-5.517 -4.979,-9.756 -6.459,-12.716c-3.095,0.673 -5.954,1.076 -8.578,1.211c-2.624,0.134 -5.955,0.269 -9.991,0.404l-16.955,-0l-0,61.158c-0,1.884 -0.942,2.826 -2.826,2.826l-9.083,-0c-1.884,-0 -2.826,-0.942 -2.826,-2.826l0,-140.483c0,-1.48 0.034,-2.624 0.101,-3.431c0.068,-0.807 0.303,-1.413 0.707,-1.817c0.403,-0.403 1.009,-0.639 1.816,-0.706c0.808,-0.067 1.951,-0.101 3.432,-0.101l38.148,0c7.67,0 14.297,1.043 19.881,3.129c5.585,2.085 10.227,5.012 13.928,8.78c3.7,3.768 6.459,8.343 8.275,13.725c1.817,5.383 2.725,11.371 2.725,17.964c0,4.037 -0.706,7.872 -2.119,11.505c-1.413,3.633 -3.331,6.997 -5.753,10.092c-2.422,3.095 -5.214,5.887 -8.376,8.377c-3.163,2.489 -6.426,4.541 -9.79,6.156l34.919,66.81Zm-165.309,-134.024l-0,134.024c-0,1.884 -0.942,2.826 -2.826,2.826l-9.285,-0c-1.884,-0 -2.826,-0.942 -2.826,-2.826l0,-134.024l-41.579,0c-1.884,0 -2.826,-0.942 -2.826,-2.825l-0,-6.863c-0,-1.884 0.942,-2.826 2.826,-2.826l98.499,0c1.884,0 2.826,0.942 2.826,2.826l-0,6.863c-0,1.883 -0.942,2.825 -2.826,2.825l-41.983,0Zm1412.09,62.168c0,-8.477 -1.076,-16.484 -3.229,-24.019c-2.153,-7.536 -5.181,-14.331 -9.083,-20.387c-4.71,-6.593 -10.328,-11.673 -16.854,-15.239c-6.527,-3.566 -13.894,-5.348 -22.102,-5.348c-8.343,-0 -15.777,1.782 -22.304,5.348c-6.526,3.566 -12.144,8.646 -16.854,15.239c-3.902,6.056 -6.93,12.851 -9.083,20.387c-2.153,7.535 -3.229,15.542 -3.229,24.019c-0,8.477 1.076,16.517 3.229,24.12c2.153,7.603 5.181,14.432 9.083,20.487c4.845,6.459 10.564,11.505 17.157,15.138c6.594,3.634 13.927,5.45 22.001,5.45c8.208,0 15.575,-1.783 22.102,-5.349c6.526,-3.566 12.144,-8.645 16.854,-15.239c3.902,-6.055 6.93,-12.884 9.083,-20.487c2.153,-7.603 3.229,-15.643 3.229,-24.12Zm805.757,-0c0,-8.477 -1.076,-16.484 -3.229,-24.019c-2.153,-7.536 -5.181,-14.331 -9.083,-20.387c-4.71,-6.593 -10.328,-11.673 -16.854,-15.239c-6.526,-3.566 -13.894,-5.348 -22.102,-5.348c-8.343,-0 -15.777,1.782 -22.304,5.348c-6.526,3.566 -12.144,8.646 -16.854,15.239c-3.902,6.056 -6.929,12.851 -9.082,20.387c-2.153,7.535 -3.23,15.542 -3.23,24.019c0,8.477 1.077,16.517 3.23,24.12c2.153,7.603 5.18,14.432 9.082,20.487c4.845,6.459 10.564,11.505 17.157,15.138c6.594,3.634 13.927,5.45 22.001,5.45c8.208,0 15.576,-1.783 22.102,-5.349c6.526,-3.566 12.144,-8.645 16.854,-15.239c3.902,-6.055 6.93,-12.884 9.083,-20.487c2.153,-7.603 3.229,-15.643 3.229,-24.12Zm-1645.62,21.799c-5.652,-13.994 -11.068,-27.821 -16.249,-41.479c-5.18,-13.658 -10.597,-27.484 -16.248,-41.478c-5.652,13.994 -11.202,27.82 -16.652,41.478c-5.45,13.658 -11.001,27.485 -16.652,41.479l65.801,-0Zm-932.313,-0c-5.652,-13.994 -11.068,-27.821 -16.248,-41.479c-5.181,-13.658 -10.597,-27.484 -16.249,-41.478c-5.651,13.994 -11.202,27.82 -16.652,41.478c-5.45,13.658 -11,27.485 -16.652,41.479l65.801,-0Zm2053.35,-0c-5.651,-13.994 -11.067,-27.821 -16.248,-41.479c-5.181,-13.658 -10.597,-27.484 -16.248,-41.478c-5.652,13.994 -11.203,27.82 -16.652,41.478c-5.45,13.658 -11.001,27.485 -16.653,41.479l65.801,-0Zm-599.877,-0c-5.652,-13.994 -11.068,-27.821 -16.248,-41.479c-5.181,-13.658 -10.597,-27.484 -16.249,-41.478c-5.651,13.994 -11.202,27.82 -16.652,41.478c-5.449,13.658 -11,27.485 -16.652,41.479l65.801,-0Zm-814.436,-0c-5.652,-13.994 -11.068,-27.821 -16.249,-41.479c-5.18,-13.658 -10.596,-27.484 -16.248,-41.478c-5.652,13.994 -11.202,27.82 -16.652,41.478c-5.45,13.658 -11,27.485 -16.652,41.479l65.801,-0Zm2061.22,-52.883c-0,-5.651 -0.639,-10.462 -1.918,-14.432c-1.278,-3.969 -3.431,-7.199 -6.459,-9.688c-3.027,-2.49 -6.963,-4.272 -11.807,-5.349c-4.845,-1.076 -10.9,-1.615 -18.166,-1.615l-20.79,0l-0,60.15l21.193,-0c5.518,-0 10.597,-0.673 15.24,-2.019c4.642,-1.346 8.645,-3.297 12.009,-5.853c3.364,-2.557 5.988,-5.618 7.872,-9.184c1.884,-3.566 2.826,-7.569 2.826,-12.01Zm-2198.88,0c-0,-5.651 -0.639,-10.462 -1.918,-14.432c-1.278,-3.969 -3.431,-7.199 -6.459,-9.688c-3.027,-2.49 -6.963,-4.272 -11.807,-5.349c-4.845,-1.076 -10.9,-1.615 -18.166,-1.615l-20.79,0l-0,60.15l21.193,-0c5.517,-0 10.597,-0.673 15.239,-2.019c4.643,-1.346 8.646,-3.297 12.01,-5.853c3.364,-2.557 5.988,-5.618 7.872,-9.184c1.884,-3.566 2.826,-7.569 2.826,-12.01Zm509.653,-1.211c0,1.48 -0.101,2.321 -0.302,2.523c-0.202,0.202 -1.043,0.303 -2.524,0.303l-7.871,-0c-1.481,-0 -2.322,-0.101 -2.523,-0.303c-0.202,-0.202 -0.303,-1.043 -0.303,-2.523l-0,-40.974c-0,-1.48 0.101,-2.321 0.303,-2.523c0.201,-0.202 1.042,-0.303 2.523,-0.303l7.871,0c1.481,0 2.322,0.101 2.524,0.303c0.201,0.202 0.302,1.043 0.302,2.523l0,40.974Z" style="fill:#00584a;fill-rule:nonzero;"/><path d="M308.229,1728.15l-18.041,0l0,-236.944c66.657,-0 157.052,-8.086 205.098,36.294c70.075,64.689 36.082,173.007 -39.881,191.059c-37.031,8.651 -100.08,9.591 -147.176,9.591Zm46.337,-292.983l-64.378,-0l0,-211.369c49.185,-0 123.438,-6.018 161.609,10.53c49.945,22.002 75.583,85.752 38.551,144.423c-26.587,42.124 -82.799,56.416 -135.782,56.416Zm-139.011,351.655l203.199,-0c50.325,-0 103.878,-24.447 132.743,-47.013c72.734,-56.415 75.013,-167.365 18.421,-227.541c-19.18,-20.31 -35.132,-36.482 -62.668,-44.945c-9.496,-2.82 -22.599,-3.573 -29.246,-6.581l0,-10.155c12.344,-1.128 32.664,-10.155 41.02,-15.42c36.082,-22.19 61.909,-72.4 61.909,-117.156c-0,-51.902 -39.5,-118.848 -90.395,-134.644c-18.041,-5.642 -43.488,-10.531 -66.657,-10.531l-208.326,-0l0,613.986Z" style="fill:#ab0917;"/><path d="M1910.84,1391.91l0,-38.174l-66.846,-0c-0,137.653 4.558,277.375 2.279,415.404c-0.38,25.763 -7.596,20.122 72.164,20.122l-0,-346.39c7.216,-1.693 51.654,-24.071 77.291,-33.285c19.18,-6.77 69.695,-3.949 86.407,16.36c10.824,13.164 16.522,37.234 16.522,60.177l-0,301.069l71.024,0c0,-112.078 -0.759,-240.141 -1.709,-354.476c52.034,-24.823 156.102,-52.278 171.484,31.405c3.419,18.805 1.14,43.815 2.469,63.937c0.95,19.745 0.95,228.858 0.95,258.758l69.505,-0l-0,-272.674c-0,-64.877 -13.483,-122.045 -66.467,-150.629c-58.681,-31.78 -135.212,-6.581 -188.006,23.507c-11.394,6.582 -11.394,4.137 -18.231,7.522c-5.127,-7.71 -11.584,-13.164 -18.611,-19.934c-8.925,-8.838 -12.723,-11.095 -25.067,-15.984c-26.777,-10.719 -72.164,-12.035 -101.219,-3.385c-6.457,1.881 -9.876,3.385 -15.003,5.642c-19.37,8.838 -52.224,29.712 -68.936,31.028Z" style="fill:#ab0917;"/><path d="M2690.21,1402.07c13.483,-0 37.222,4.513 47.856,8.65c45.957,18.053 60.2,60.553 60.2,113.583l-216.112,-2.445c0,-31.216 16.712,-63.185 31.524,-81.05c11.964,-14.48 12.534,-16.924 30.195,-25.951c12.154,-6.205 28.106,-12.787 46.337,-12.787Zm-180.03,147.808c0,55.287 -2.089,69.391 16.332,123.925c36.462,107.754 181.359,146.868 281.629,87.068c24.498,-14.668 49.376,-35.354 64.758,-58.108c-7.027,-4.701 -39.121,-31.78 -43.678,-35.729c-5.318,5.641 -18.991,17.864 -25.068,23.506c-35.132,33.661 -107.106,55.663 -153.063,28.019c-31.335,-18.993 -43.109,-33.849 -57.731,-67.698c-11.585,-26.515 -11.205,-49.645 -11.205,-78.041l177.561,0c38.361,0 67.227,-2.633 105.398,-2.633c-0,-68.638 0.949,-113.018 -41.02,-168.117c-7.216,-9.403 -11.964,-12.224 -21.269,-19.746c-7.976,-6.581 -15.762,-10.907 -25.447,-15.608c-38.361,-18.429 -70.265,-15.608 -112.804,-15.608c-89.255,-0 -154.393,109.258 -154.393,198.77Z" style="fill:#ab0917;"/><path d="M1128.81,1733.22l-20.7,0c-38.36,0 -75.392,-30.276 -91.534,-54.534c-69.885,-104.181 -30.764,-271.546 99.321,-271.546c33.043,0 65.137,14.292 84.887,38.175c15.003,18.052 22.029,32.908 30.005,56.979c17.092,51.902 12.344,124.866 -15.572,173.947c-14.813,25.951 -47.097,56.979 -86.407,56.979Zm-213.453,-152.885c-0,63.373 20.509,104.744 53.933,147.808c30.954,40.055 94.193,61.117 144.138,61.117c75.582,-0 111.284,-22.755 147.176,-62.997c72.164,-81.05 75.772,-215.883 4.558,-308.968c-65.517,-85.375 -214.973,-93.837 -296.252,4.701c-33.613,40.807 -53.553,104.745 -53.553,158.339Z" style="fill:#ab0917;"/><path d="M1445.19,1570.18c0,-45.696 7.406,-81.426 31.904,-113.582c11.205,-14.668 19.181,-22.379 35.133,-31.593c34.752,-19.933 94.572,-23.318 128.945,2.069c78.431,58.107 74.633,197.453 29.246,259.322c-21.08,28.772 -49.186,49.457 -88.876,49.457c-39.31,0 -77.481,-22.378 -99.7,-51.714c-19.94,-26.515 -36.652,-68.45 -36.652,-113.959Zm-66.847,2.633c0,63.937 13.674,111.702 54.503,157.399c18.231,20.309 30.195,28.583 56.022,41.371c45.388,22.19 135.023,26.139 180.03,-0.188c61.15,-35.73 108.056,-110.198 108.056,-183.35l0,-35.73c0,-76.16 -47.096,-151.192 -112.993,-183.349c-73.683,-36.106 -153.254,-18.053 -215.163,34.225c-42.159,35.542 -70.455,111.702 -70.455,169.622Z" style="fill:#ab0917;"/><path d="M3081.22,1565.11l-74.633,112.078c-12.344,18.429 -24.118,35.918 -37.031,55.099c-5.318,7.71 -35.323,49.081 -36.842,54.535c14.433,-0.564 54.123,-0 73.873,-0c21.649,-31.969 55.642,-92.521 78.241,-129.003c6.457,-10.343 22.219,-33.285 24.688,-44.38l5.127,0c3.988,16.737 88.496,146.116 102.929,173.383l74.632,-0l-144.138,-224.157c1.899,-2.256 2.469,-2.82 4.748,-5.641l30.765,-45.885c20.13,-30.088 94.003,-134.832 105.967,-157.398l-74.633,-0c-3.798,16.172 -94.003,146.679 -97.611,160.407l-5.128,0c-3.228,-13.728 -14.622,-27.643 -21.459,-39.867l-24.118,-39.866c-11.014,-19.746 -42.539,-63.562 -47.096,-80.674l-77.102,-0l138.821,211.369Z" style="fill:#ab0917;"/><path d="M964.161,930.811c9.116,-2.068 90.395,-56.979 116.792,-67.698c58.491,-23.695 63.998,-29.9 132.934,-51.714c232.064,-72.964 484.638,-59.612 716.322,5.829c52.983,15.045 141.669,52.655 190.665,78.794c50.324,26.891 136.731,82.93 179.08,123.361l34.753,31.781c6.457,6.582 11.204,12.411 18.61,17.3c-6.456,-27.079 -79,-92.897 -99.7,-112.83c-6.267,-6.018 -10.065,-8.086 -16.711,-13.916c-34.373,-30.464 -107.297,-77.101 -146.797,-96.658c-14.243,-6.958 -25.447,-12.411 -39.5,-19.557c-89.636,-44.568 -235.103,-84.999 -335.183,-96.094c-32.854,-3.761 -74.633,-10.155 -110.715,-9.967c-20.889,-0 -43.108,-0.752 -59.82,-1.692c-71.214,-3.95 -202.439,16.736 -270.615,33.661c-31.334,7.898 -63.238,18.429 -91.154,29.524c-55.262,22.002 -133.124,61.304 -174.713,102.111c-6.836,6.958 -9.685,8.086 -16.521,14.104c-7.217,6.018 -8.926,9.591 -14.433,16.172c-6.077,7.523 -10.825,8.087 -13.294,17.489Z" style="fill:#00544b;"/><path d="M727.54,1674.74c-0,117.343 48.805,141.978 143.948,96.658c-3.039,-13.352 -7.027,-24.823 -10.255,-38.175c-22.599,0 -50.705,6.958 -59.251,-9.966c-8.355,-16.737 -2.468,-44.004 -2.468,-66.382l-0,-489.121l-71.974,0l-0,506.986Z" style="fill:#ab0917;"/><path d="M2008.45,859.54c0.759,30.652 35.702,91.017 52.603,116.215c20.89,31.029 52.984,63.75 82.419,86.504c48.806,37.798 108.816,67.886 172.244,81.614c10.635,2.256 66.087,14.104 71.025,9.026c3.608,-3.385 -0.76,-5.265 -5.508,-9.966l-194.842,-163.981l-123.059,-89.512c-17.281,-12.787 -37.791,-29.9 -54.882,-29.9Z" style="fill:#00544b;"/><path d="M2005.98,691.422c-0,16.925 2.849,96.847 23.168,96.847c9.116,-0 15.003,-30.465 21.46,-50.022c6.646,-19.557 13.483,-37.234 19.37,-54.723c24.688,-73.716 86.977,-199.146 132.554,-266.28c5.317,-7.898 11.964,-14.856 14.433,-23.882c-18.801,4.325 -57.162,39.49 -73.494,52.09c-58.491,44.756 -137.491,158.527 -137.491,245.97Z" style="fill:#00544b;"/><path d="M2098.66,724.519l-0,12.788c-0,87.067 65.517,139.157 137.301,156.834c67.226,16.737 140.91,8.275 217.252,57.732c29.245,18.993 2.278,-21.062 -78.621,-52.278c-19.56,-7.71 -37.601,-12.6 -59.44,-17.677c-53.554,-12.599 -122.489,-8.086 -162.179,-66.194c-37.412,-54.911 -12.914,-114.147 -38.931,-114.147c-8.736,0 -15.382,14.292 -15.382,22.942Z" style="fill:#ab0917;"/><path d="M2201.39,752.539c-35.892,-0 -34.373,33.097 5.318,33.097c28.485,-0 45.767,0.188 71.974,-12.6c17.471,-8.65 23.168,-11.471 36.651,-25.01c19.371,-19.181 12.344,-10.907 27.727,-33.661c28.675,-42.688 46.716,-123.55 101.219,-146.868c19.75,-8.274 32.474,-6.394 52.984,-11.095c-5.888,-8.651 -8.546,-5.078 -41.21,-5.078c-77.481,0 -100.46,94.59 -137.301,149.313c-25.258,37.798 -47.856,48.705 -90.205,53.406c-10.635,1.317 -15.193,-1.504 -27.157,-1.504Z" style="fill:#ab0917;"/><path d="M2481.88,612.441c8.736,-0.752 10.065,-3.197 15.952,-7.146c5.697,-3.761 9.116,-5.265 14.813,-8.086c53.743,-26.703 46.337,-6.394 60.959,21.25c31.715,59.424 116.222,-8.087 79.571,173.759c-2.469,12.223 -4.368,19.745 -7.217,31.216c-2.658,10.343 -7.216,20.498 -7.216,33.473c20.13,-14.48 88.686,-184.666 19.75,-220.772c-13.673,-7.334 -37.981,-19.181 -47.286,-29.524c-17.092,-18.429 -21.46,-73.716 -88.306,-29.9c-13.863,9.215 -31.904,22.378 -41.02,35.73Z" style="fill:#ab0917;"/><path d="M2463.84,683.712c0,69.203 2.279,150.441 48.236,201.967c22.029,24.823 69.695,35.166 82.229,-4.137c1.709,-6.018 4.368,-13.916 1.329,-16.925c-6.836,-6.77 0,10.155 -36.651,10.155c-51.465,0 -60.39,-119.036 -61.719,-162.852c-0.76,-22.754 5.317,-58.672 -18.041,-58.672c-12.534,0 -15.383,17.489 -15.383,30.464Z" style="fill:#ab0917;"/><path d="M2538.47,803.501c-0,-19.934 -13.673,-122.233 25.637,-122.233c13.293,-0 31.714,21.625 37.601,31.592c12.724,20.874 26.017,79.922 -1.519,98.351c-23.168,-12.223 -28.865,-34.037 -23.168,-58.672c7.026,-3.385 12.344,-5.077 23.168,-5.077l0,-5.078c-27.346,-2.256 -43.678,-21.626 -43.678,35.542c-0,43.628 44.058,85.751 69.505,40.807c22.219,-39.115 5.697,-136.713 -47.096,-162.288c-68.176,-32.909 -55.073,82.93 -49.945,118.284c1.519,10.907 1.329,22.754 9.495,28.772Z" style="fill:#ab0917;"/><path d="M2412.38,770.404c-0,48.141 6.267,82.93 34.563,118.66c25.447,32.157 47.666,40.431 86.407,49.457c-2.849,-10.907 -18.041,-13.163 -41.21,-30.464c-29.815,-22.378 -41.019,-60.176 -46.147,-97.034c-2.469,-17.301 1.519,-55.851 -18.231,-55.851c-6.077,-0 -15.382,9.026 -15.382,15.232Z" style="fill:#ab0917;"/><path d="M2121.82,643.093c0,9.215 7.027,20.31 15.382,20.31c4.938,-0 23.928,-18.993 35.892,-28.02c41.21,-31.404 91.725,-43.251 149.266,-43.251l-0,-5.266c-67.037,-15.42 -120.97,-11.095 -175.283,32.721c-3.418,2.821 -25.257,21.25 -25.257,23.506Z" style="fill:#ab0917;"/></g></g></svg>
