<svg xmlns="http://www.w3.org/2000/svg" viewBox="0 0 1000 1000" enable-background="new 0 0 1000 1000"><style type="text/css">.st0{fill:#ffffff;}</style><path id="Фигура_1" class="st0" d="M935.1 217.2h-135.7l-150.6 437c-2.2 6.4-5.6 12.2-10.1 17.1-8.4 10.2-20.6 16-33.4 16h-412.4c-4.6 0-9.2-.7-13.5-2.2-14.1-4.1-25.4-15-30.4-29.5l-126.1-359c-8.8-24.7 2.9-52.1 26.2-61.7 4-1.6 8.1-2.6 12.3-2.9 3.6-1 7.3-1.5 11.1-1.5h626.8l26.6-77.2c9-19.3 27.5-31.6 47.8-31.9h161.3c25.2.4 45.3 22.2 44.9 48.7-.3 25.8-20.2 46.7-44.8 47.1zm-332.9 295h-407.8l27.8 79.2h352.7l27.3-79.2zm-473.1-185.9l31.6 90h474.5l31-90h-537.1zm152.9 415.1c36-.6 65.8 29.6 66.4 67.5.6 37.9-28.1 69.2-64.2 69.8s-65.8-29.6-66.4-67.5v-1.2c-.3-37.6 28.4-68.3 64.2-68.6zm240.3 0c36-.6 65.8 29.6 66.4 67.5.6 37.9-28.1 69.2-64.2 69.8-36 .6-65.8-29.6-66.4-67.5v-1.2c-.3-37.6 28.4-68.3 64.2-68.6z"/></svg>