<svg xmlns="http://www.w3.org/2000/svg" width="32" viewBox="0 0 1000 1000" enable-background="new 0 0 1000 1000"><style type="text/css">.st0{fill:#FFFFFF;}</style><path class="st0" d="M294.1 566.9c-47.2-35.9-100.9-60.7-140.9-103.5-49.9-53.3-79.9-116-77.2-190.4 2.8-78 37.3-140.9 97.9-189.5 46.3-37.1 100.2-56.6 158.3-64.5 118.5-16.1 227.6 11.9 328.7 73.3 45.9 27.8 82 65.8 103.2 116.1 16.3 38.8 24.9 79.2 15.1 121.2-10.9 47.2-40.2 81.9-78 110.2-1.5 1.1-2.9 2.1-4.4 3.1-.2.1-.5.1-1.5.4 2.2-13.8 4.7-27.3 6.6-40.9 5.9-41.6 7.9-83.2-3.4-124.1-19.4-70.2-64.9-115.1-135.3-133-58-14.7-115.6-11.2-171.1 11.8-69.8 28.9-108.6 82-119.5 156.1-6.8 47-3.2 93.8 3.6 140.5 5.3 35.9 11.5 71.8 17.4 107.6.1 1.2.2 2.5.5 5.6zm15-157.7c17.7 20.4 37 38.2 59 53 45.8 30.7 96.7 46.8 150.9 53.4 47.3 5.8 94.3 4.5 140.6-8.7 87.3-25 150.2-98.4 160.7-188.8 8.3-71.2-8.7-135.8-53.2-192.3-28.6-36.2-66.6-59.9-108.1-78.5-22-9.9-44.7-17.8-69.7-25.7 14.5-4.2 27.5-6.6 40.5-8.3 48.1-6.5 95.4-4 141.1 13.6 59.1 22.8 100.5 64.7 126 121.8 41 92.1 35.6 182.4-15.2 269.4-18.5 31.5-46.5 54.1-75.4 75.7-49.2 36.9-99.6 72.2-146.8 111.8-40.8 34.4-78.4 71.7-107.9 116.5-17.9 27.2-32 56.4-42.6 89.1-5.1-13.7-9.6-26-15.1-37.8-28.3-59.9-71.2-107.8-122.2-149-2.6-2.1-4.9-4.6-7.8-6.1-15-7.8-20.7-20.8-24.1-36.9-11.8-55.2-23.9-110.2-30.1-166.4-.1-1.8-.3-3.8-.6-5.8zm613.3 35.3c2.3 76.2 4.2 151.1-11.9 225.1-19.9 92.4-69.1 166.8-140.9 226.7-64.4 53.7-138.9 84.1-222.7 91.4-7.2.6-8.9-1.5-9.3-8.3-10.4-136.4 38-248 141.6-336.5 48-41 100.2-76.4 152-112.1 34.1-23.5 64.8-50 88.6-83.9.4-.6 1-1 2.6-2.4zm-837.8 12.3c.8.6 1.5.9 1.9 1.5 22.6 31.8 52.5 55.5 84.8 76.7 43.4 28.3 87.4 55.7 129.3 86.4 53.1 39 99.7 84.2 134.5 140.8 27.3 44.2 42 92.6 46.3 144.4 2.1 25.5 2 51.2 2.7 76.9.1 5.7-1.1 7.2-7.2 6.5-40.4-5.2-80.5-11.8-118.7-26.2-76.2-28.9-137.5-77.1-186.7-142-43.9-57.8-68.1-123-77.6-194.4-6.9-51.7-8.1-103.7-9.4-155.8-.1-4.9-1.3-9.7.1-14.8zm360-203.1c-21.3 5.6-33.6 18.2-40.8 36.1-11.4 28.5-1.8 59.8 25.2 79.5 54.4 39.6 161.4 53.4 219.1-40.5 5-8.2 9.4-16.8 14.4-25.9 2.1 4.1 2.1 8.3 2.5 12.3 5.2 47.5.2 93.8-15.9 138.8-2.7 7.6-7.2 11.1-14.9 13-43.7 10.9-87.7 10.2-131.6 2.5-30.6-5.3-60.7-12.9-88.3-27.7-39.9-21.3-68.3-52.5-80.8-96.6-17.1-60.7 4.5-114.6 60.2-144 58.6-31 120.1-32.7 182.5-12 15.1 5 27.9 14.5 38.3 26.8 25.5 30.4 23.5 72.8-7.6 102.4-34.9 33.1-77.3 45.8-124.5 33.6-28.1-7.2-46.9-25.9-51.8-55.8-2.6-15.5 2.6-28.9 14-42.5z"/></svg>