<svg xmlns="http://www.w3.org/2000/svg" viewBox="0 0 1000 1000" enable-background="new 0 0 1000 1000"><style type="text/css">.st0{fill:#6E6A6D;}</style><path class="st0" d="M545 86h-256.4c-115 0-223.2 87.1-223.2 188 0 103.1 78.4 186.3 195.3 186.3 8.1 0 16-.2 23.8-.7-7.6 14.5-13 30.9-13 47.9 0 28.7 15.4 51.9 34.9 70.8-14.7 0-28.9.4-44.5.4-142.4 0-252 90.7-252 184.7.1 92.7 120.2 150.6 262.6 150.6 162.3 0 252-92.1 252-184.7 0-74.3-21.9-118.7-89.7-166.7-23.2-16.4-67.5-56.3-67.5-79.8 0-27.5 7.8-41 49.2-73.4 42.5-33 72.5-79.6 72.5-133.8 0-64.5-28.7-127.4-82.7-148.1h81.3l57.4-41.5zm-89.5 627.3c2 8.6 3.1 17.4 3.1 26.4 0 74.8-48.2 133.3-186.6 133.3-98.4 0-169.5-62.3-169.5-137.1 0-73.4 88.2-134.4 186.6-133.3 23 .2 44.4 3.9 63.8 10.2 53.4 37.2 91.8 58.1 102.6 100.5zm-157.6-279.2c-66.1-2-128.9-73.9-140.3-160.6-11.4-86.8 32.9-153.2 98.9-151.2s128.9 71.6 140.3 158.3c11.4 86.8-32.9 155.5-98.9 153.5zm508.3-164.4v-183.7h-61.2v183.7h-183.7v61.3h183.7v183.7h61.3v-183.7h183.7v-61.2l-183.8-.1z"/></svg>