<svg xmlns="http://www.w3.org/2000/svg" width="20" viewBox="0 0 1000 1000" enable-background="new 0 0 1000 1000"><style type="text/css">.st0{fill:#AB0917;}</style><path class="st0" d="M917 250.4h-91.4v356.3c0 30.6-39.8 70-70.4 69.9-30.6 0-357.5 1.8-357.5 1.8 0 40.4 32.8 64.9 73.1 64.9h140.7l183.6 166.7-.2-166.6h122.1c40.4 0 73.1-24.6 73.1-64.9v-357.1c0-40.3-32.7-71-73.1-71zM722.4 90h-639.3c-40.4 0-73.1 32.7-73.1 73.1v407.8c0 40.4 32.7 73.1 73.1 73.1h121.8v167.8l186.3-167.7h331.2c40.4 0 73.1-32.7 73.1-73.1v-407.9c0-40.4-32.8-73.1-73.1-73.1zm-544.4 309c-24.6 0-44.5-19.3-44.5-43s19.9-43 44.5-43 44.5 19.3 44.5 43-19.9 43-44.5 43zm220 0c-24.6 0-44.5-19.3-44.5-43s19.9-43 44.5-43 44.5 19.3 44.5 43-19.9 43-44.5 43zm225 0c-24.6 0-44.5-19.3-44.5-43s19.9-43 44.5-43 44.5 19.3 44.5 43-19.9 43-44.5 43z"/></svg>