<svg xmlns="http://www.w3.org/2000/svg" viewBox="0 0 1000 1000" enable-background="new 0 0 1000 1000"><style type="text/css">.st0{fill:#ffffff;}</style><path class="st0" d="M67.8 195.3c1.3 3.4 431.3 385.2 433.1 384.6 1.1-.4 99.4-86.7 218.6-192 133.4-117.7 215.8-191.8 214.4-192.6-3.1-2.1-866.9-1.9-866.1 0zm-55.9 46.7c-3.3 15-1.9 515.4 1.3 522.7l2.3 5.4 153.4-131.5c84.2-72.4 153-132.1 152.8-132.9-.6-1.5-305.8-273.6-306.9-273.6-.4 0-1.8 4.6-2.9 9.9zm819.8 128.9c-84.5 74.6-153.6 136.1-153.4 136.7 0 1.5 300.8 264 303.1 264.8 1 .4 3.5-3.8 5.2-9 3.3-9 3.5-25.3 3.5-263.3 0-197.6-.6-254.8-2.3-259.2l-2.5-5.6-153.6 135.6zm-613.1 305.9l-150.1 128.7 215 .6c118.1.2 310.9.2 428.1 0l213.3-.6-130.6-114.3c-71.8-62.8-138-120.6-147-128.5l-16.5-14.5-64.9 57.2c-35.6 31.6-65.5 57.4-66 57.4-.6 0-29.7-25.7-64.9-57-35-31.2-64.1-57-64.9-57.3-.6-.3-68.7 57.5-151.5 128.3z"/></svg>