<svg xmlns="http://www.w3.org/2000/svg" viewBox="0 0 1000 1000" enable-background="new 0 0 1000 1000"><style type="text/css">.st0{fill:#ffffff;}</style><path class="st0" d="M873.5 9.7c-5.4 0-10.8.4-16 1.1h-715c-5.2-.7-10.6-1.1-16-1.1-64.4 0-116.5 52.2-116.5 116.5s52.1 116.5 116.5 116.5c2.8 0 5.6-.1 8.3-.3h730.4c2.8.2 5.5.3 8.3.3 64.3 0 116.5-52.1 116.5-116.5 0-64.3-52.1-116.5-116.5-116.5zM873.6 757.3c-5.7 0-11.3.4-16.7 1.2h-713.7c-5.5-.8-11-1.2-16.7-1.2-64.4 0-116.5 52.2-116.5 116.5s52.1 116.5 116.5 116.5c2.3 0 4.5-.1 6.8-.2h733.6c2.2.1 4.5.2 6.8.2 64.3 0 116.5-52.1 116.5-116.5-.1-64.3-52.2-116.5-116.6-116.5zM873.6 381.8c-5.6 0-11.2.4-16.6 1.2h-713.8c-5.5-.8-11-1.2-16.7-1.2-64.4.1-116.5 52.2-116.5 116.5s52.1 116.5 116.5 116.5c2.3 0 4.5-.1 6.8-.2h733.6c2.2.1 4.5.2 6.8.2 64.3 0 116.5-52.1 116.5-116.5-.1-64.3-52.2-116.5-116.6-116.5z"/></svg>