<svg xmlns="http://www.w3.org/2000/svg" width="23" viewBox="0 0 1000 1000" enable-background="new 0 0 1000 1000"><style type="text/css">.st0{fill:#6E6A6D;}</style><path class="st0" d="M813.3 709.7c11-.1 22.1-4.2 30.6-12.6 8.4-8.5 12.6-19.5 12.6-30.6 0-11-4.2-22.1-12.5-30.5l-235.3-226.7h-73.8l-45.9 43.4c-17.7 17.6-41.3 27.4-66.2 27.4-8.5 0-16.8-1.2-24.7-3.5-14.4-3.9-27.7-11.2-38.8-21.6-.5-.5-1.4-1.3-2.5-2.3-3.3-3.3-6.1-6.8-8.7-10.3-3.5-4.7-6.5-9.7-9.1-14.8-6.3-13-9.5-27.1-9.5-41.3 0-23.9 9.1-47.8 27.6-66.3l17.4-15.3-130.8-130.4c-11.4-11.4-26.2-17-41.1-17-15 0-29.8 5.7-41.1 17.1l-151.5 151.4 209.9 209.8 24.3-24.2c8.7-8.7 19.1-15.2 30.4-19.5 9-3.3 18.7-5.2 28.4-5.4.2 0 .8-.1 1.7-.1 6.7 0 13.3.8 19.6 2.3 14.6 3.4 28.1 10.6 39.2 21.2.3.3.8.7 1.6 1.6 5.9 5.8 10.7 12.3 14.6 19.3 3.5-.5 6.9-.7 10.4-.7 22.8 0 44.3 9 60.5 25.1 14.6 14.6 22.9 33.3 24.6 52.6 11.9 4.2 22.7 11 31.9 20.1 16.5 16.6 24.9 38.4 24.9 60.2 0 1.9 0 3.8-.2 5.6 4.1 2.4 8.1 5.2 11.8 8.3 20.1 16.8 30.5 41.1 30.5 65.6 0 19.4-6.6 38.8-19.8 54.8l-14.8 18.7 9.5 9.7c8.5 8.5 19.5 12.7 30.6 12.7s22.1-4.2 30.6-12.7c8.4-8.4 12.4-19.2 12.4-30.2 0-4.4-.7-9-2-13.3l-6.3-20.4 22.2 22.1c8.4 8.5 19.5 12.6 30.6 12.6s22.1-4.1 30.6-12.6c8.4-8.4 12.5-19.3 12.5-30.3 0-4.8-.8-9.6-2.4-14.2l-5.8-17.2 14.2 11.4c8 6.5 17.5 9.7 27 9.7 11 0 22.1-4.2 30.6-12.6 8.4-8.4 12.6-19.5 12.6-30.5 0-5.4-1-10.7-2.9-15.8l-5.6-14.5 13.3 8c6.7 4.5 14.4 6.7 22.1 6.7zm-410 108.1c0 12.3 5.2 24.4 15.4 33.1 8.2 6.8 17.9 10.1 27.7 10.1 11.7 0 23.2-4.8 31.7-14.2 1.1-1.1 1.4-1.2 1.4-1.3l8.9-10.5 10.2-12.2 23.1-27.5c6.8-8.1 10.1-18 10.1-27.8 0-12.3-5.3-24.6-15.4-33.1l3.4-4-3.4 4.2c-8.1-6.8-17.9-10.1-27.7-10.1l-4.5.1-12.8 1.4 8.2-9.9c6.7-8.1 10.1-17.9 10.1-27.8 0-11-4.2-21.9-12.5-30.2-8.4-8.4-19.4-12.6-30.4-12.6-5 0-10 .9-14.8 2.7l-15.3 5.4 9.1-13.3c5-7.3 7.4-15.8 7.4-24.4 0-11-4.2-22.1-12.6-30.5s-19.4-12.7-30.5-12.7c-11 0-22.1 4.2-30.6 12.6l-20.4 20.4 6.5-20.6c1.4-4.2 2.1-8.8 2.1-13.2 0-11.1-4.1-21.9-12.4-30.2 0-.1-.5-.3-1.5-1.3-8.4-7.5-18.7-11.5-29.1-11.5-3.2 0-6.5.5-9.9 1.3-7.6 1.8-14.8 5.5-20.8 11.4l-34.7 34.7-10.8 10.8-6.5 6.5c-1.2 1.2-2.5 2.8-3.9 4.7-5.8 7.7-8.7 16.8-8.7 26.1 0 11 4.2 21.9 12.5 30.3 8.5 8.5 19.5 12.7 30.6 12.7 6.4 0 12.9-1.6 18.9-4.6l13.8-6.8-6.8 14c-2.9 6-4.4 12.5-4.4 19.1.1 11 4.1 21.8 12.5 30.3 8.5 8.4 19.5 12.6 30.6 12.6 6.4 0 12.9-1.6 18.9-4.6l13.8-6.8-6.8 13.8c-2.9 6.1-4.4 12.5-4.4 19.2 0 10.9 4.1 21.9 12.5 30.3 8.5 8.4 19.5 12.6 30.6 12.6 6.3 0 12.7-1.5 18.7-4.4l13.6-6.6-6.7 13.7c-2.6 5.7-4 12.2-4 18.6zm114.3-450.8h108.3l18 17.2 16.6 15.9 4.4 4.4 137 136.8 171.1-171c11.4-11.4 17-26.2 17-41.1s-5.7-29.8-17-41.1l-151.4-151.5-100.2 100.1-12.7 12.6-15.5 15.6-2.4-.1c-2-.1-3.1-.5-3.7-.5h-190.9c-13.6 0-26.7 5.4-36.3 15.1l-52.1 52-21.3 18.7c-9.9 10-14.8 23-14.8 36 0 4.1.5 8.2 1.4 12.1 1.2 5.2 3.3 10 6 14.6 2.2 3.5 4.5 6.8 7.4 9.7 0 .1.5.3 1.8 1.4 9.9 9.1 22.1 13.6 34.5 13.7 1.3 0 3-.3 5.2-.5 11.4-1.2 22.5-5.9 31.2-14.6l58.4-55.5z"/></svg>