<?xml version="1.0" encoding="UTF-8" standalone="no"?>
<svg
   xmlns:dc="http://purl.org/dc/elements/1.1/"
   xmlns:cc="http://creativecommons.org/ns#"
   xmlns:rdf="http://www.w3.org/1999/02/22-rdf-syntax-ns#"
   xmlns:svg="http://www.w3.org/2000/svg"
   xmlns="http://www.w3.org/2000/svg"
   id="svg6"
   version="1.1"
   enable-background="new 0 0 1000 1000"
   viewBox="0 0 1000 1000"
   width="20"
   >
  <metadata
     id="metadata12">
    <rdf:RDF>
      <cc:Work
         rdf:about="">
        <dc:format>image/svg+xml</dc:format>
        <dc:type
           rdf:resource="http://purl.org/dc/dcmitype/StillImage" />
      </cc:Work>
    </rdf:RDF>
  </metadata>
  <defs
     id="defs10" />
  <style
     id="style2"
     type="text/css">.st0{fill:#AB0917;width:20px;height:16px}</style>
  <path
     id="path4"
     d="M992.9 772.1c-2.8-8.4-20.6-20.9-53.4-37.3-8.9-5.2-21.6-12.2-38-21.1-16.4-8.9-31.3-17.1-44.6-24.6-13.4-7.5-25.9-14.8-37.6-21.8-1.9-1.4-7.7-5.5-17.6-12.3-9.9-6.8-18.2-11.8-25-15.1-6.8-3.3-13.5-4.9-20-4.9-9.4 0-21.1 6.7-35.1 20-14.1 13.4-27 27.9-38.7 43.6-11.7 15.7-24.1 30.2-37.3 43.6-13.1 13.4-23.9 20-32.3 20-4.2 0-9.5-1.2-15.8-3.5-6.3-2.3-11.1-4.3-14.4-6-3.3-1.7-8.9-4.9-16.9-9.9-8-4.9-12.4-7.6-13.4-8.1-64.2-35.6-119.3-76.4-165.2-122.3-45.9-45.9-86.7-101-122.3-165.2-.5-.9-3.2-5.4-8.1-13.4-4.9-8-8.2-13.6-9.8-16.9-1.6-3.3-3.6-8.1-6-14.4s-3.5-11.6-3.5-15.8c0-8.4 6.7-19.2 20-32.3 13.4-13.1 27.9-25.5 43.6-37.3 15.7-11.7 30.2-24.6 43.6-38.7 13.4-14.1 20-25.8 20-35.2 0-6.6-1.6-13.2-4.9-20-3.3-6.8-8.3-15.1-15.1-25-6.8-9.8-10.9-15.7-12.3-17.6-7-11.7-14.3-24.2-21.8-37.6-7.5-13.4-15.7-28.2-24.6-44.7-8.9-16.4-15.9-29.1-21.1-38-16.4-32.8-28.8-50.6-37.3-53.4-3.3-1.4-8.2-2.1-14.8-2.1-12.7 0-29.2 2.3-49.6 7-20.4 4.7-36.4 9.6-48.2 14.8-23.4 10-48.3 38.6-74.5 86-23.9 44-35.9 87.6-35.9 130.7 0 12.6.8 24.9 2.5 36.9 1.6 12 4.6 25.4 8.8 40.4 4.2 15 7.6 26.1 10.2 33.4 2.6 7.3 7.4 20.3 14.4 39 7 18.8 11.2 30.2 12.7 34.4 16.4 45.9 35.9 87 58.4 123 37 60 87.5 122 151.5 186s126 114.5 186 151.5c36.1 22.5 77.1 41.9 123 58.4 4.2 1.4 15.7 5.6 34.4 12.7 18.8 7 31.8 11.8 39 14.4 7.3 2.6 18.4 6 33.4 10.2 15 4.2 28.5 7.2 40.4 8.8 12 1.6 24.3 2.5 36.9 2.5 43.1 0 86.7-12 130.8-35.9 47.3-26.2 75.9-51.1 85.8-74.5 5.2-11.7 10.1-27.8 14.8-48.2 4.7-20.4 7-36.9 7-49.6 0-6.4-.7-11.3-2.1-14.6z"
     class="st0" />
</svg>
