<svg xmlns="http://www.w3.org/2000/svg" width="23" viewBox="0 0 1000 1000" enable-background="new 0 0 1000 1000"><style type="text/css">.st0{fill:#6E6A6D;}</style><path class="st0" d="M436.3 649.8c-22.9 100.7-45.5 197.8-94.7 274.5-15.1 23.4-30.2 53-56 65.7-38-195.6 41.4-360.4 72.8-524.6-40.1-81.5-15.1-220 70.6-235.5 124.1-22.9 91.5 127 70.3 196.8-11.4 38.2-32.4 74.7-29.2 116.6 6.8 88.3 118 93.9 174.9 48.7 81.5-65 105.1-190.8 97.3-293.9-12-157.3-190.2-235.4-347.1-172.6-81 32.4-154.5 106.8-165.2 216.1-5.6 57.7 6.6 103.7 29.2 136 3.4 4.9 15.3 13.6 17 26.8 3.6 26.5-12.2 55.5-26.8 75.2-80.5-23.1-122.1-95.6-128.7-186.9-15.1-208.3 155.8-366.7 357-381.3 214.6-15.9 385.2 108.2 400.7 289 11.7 134.3-36 269.6-111.7 342.4-56.9 54.7-178.1 108.3-276.9 56-22.1-12-31.8-26.3-53.5-49z"/></svg>