<svg xmlns="http://www.w3.org/2000/svg" width="16" viewBox="0 0 512 512" enable-background="new 0 0 512 512"><style type="text/css">.st0{fill:#FFD962;}</style><path class="st0" d="M511.3 197.3c-1.8-5.4-6.5-9.4-12.1-10.2l-158.8-23.1-71-143.8c-2.5-5.1-7.7-8.4-13.5-8.4-5.7 0-10.9 3.2-13.5 8.4l-71 143.8-158.6 23c-5.6.8-10.3 4.8-12.1 10.2-1.8 5.4-.3 11.4 3.8 15.4l114.8 112-27 158.1c-1 5.6 1.3 11.3 6 14.7 4.6 3.4 10.7 3.8 15.8 1.1l142-74.6 142 74.6c2.2 1.2 4.6 1.7 7 1.7 3.1 0 6.2-1 8.8-2.9 4.6-3.4 6.9-9 6-14.7l-27.1-158.1 114.9-112c3.9-3.9 5.3-9.8 3.6-15.2zm-149.3 116.7l25 145-130-71v-329l66 130 148 21-109 104z"/></svg>