<svg xmlns="http://www.w3.org/2000/svg" width="23" viewBox="0 0 1000 1000" enable-background="new 0 0 1000 1000"><style type="text/css">.st0{fill:#6E6A6D;}</style><path class="st0" d="M990 196.1c-36.1 16-74.8 26.8-115.5 31.7 41.5-24.9 73.4-64.3 88.4-111.2-38.9 23-81.9 39.8-127.7 48.8-36.7-39.1-88.9-63.5-146.8-63.5-111 0-201.1 90-201.1 201.1 0 15.8 1.8 31.1 5.2 45.8-167.1-8.4-315.2-88.4-414.4-210.1-17.2 29.6-27.1 64.1-27.1 101 0 69.7 35.5 131.3 89.5 167.3-33-1-64-10.1-91.1-25.1v2.5c0 97.4 69.3 178.7 161.3 197.1-16.9 4.6-34.6 7.1-53 7.1-13 0-25.6-1.3-37.8-3.6 25.6 79.9 99.8 138 187.8 139.6-68.8 53.9-155.5 86.1-249.7 86.1-16.2 0-32.2-.9-48-2.8 89 57.1 194.7 90.3 308.2 90.3 369.8 0 572.1-306.4 572.1-572.1 0-8.7-.2-17.4-.6-26 39.3-28.3 73.3-63.7 100.3-104z"/></svg>