<svg width="66" height="65" viewBox="0 0 66 65" fill="none" xmlns="http://www.w3.org/2000/svg">
<g clip-path="url(#clip0_7141_6792)">
<path d="M31.1559 20.3025C33.3831 20.3025 35.1887 18.4969 35.1887 16.2696C35.1887 14.0424 33.3831 12.2368 31.1559 12.2368C28.9286 12.2368 27.123 14.0424 27.123 16.2696C27.123 18.4969 28.9286 20.3025 31.1559 20.3025Z" fill="#01544C"/>
<path d="M31.2844 7.12249C33.2512 7.12249 34.8456 5.52807 34.8456 3.56125C34.8456 1.59442 33.2512 0 31.2844 0C29.3176 0 27.7231 1.59442 27.7231 3.56125C27.7231 5.52807 29.3176 7.12249 31.2844 7.12249Z" fill="#01544C"/>
<path d="M19.6934 64.8609C20.5914 64.8609 21.4738 64.0935 21.4738 63.1769C21.4738 63.1656 21.4738 53.3341 21.4738 53.3341C21.4788 53.1839 21.6039 53.0379 21.7442 52.9838C22.9566 52.5185 22.9803 50.8908 22.9392 50.2405C22.9295 50.0902 22.8091 50.0321 22.6799 50.1104L21.1604 51.0309C21.0314 51.1087 20.8049 51.1722 20.654 51.1722C19.085 51.1722 11.266 51.1722 10.8372 51.1722C10.5262 51.1722 10.4733 50.7566 10.4739 50.4675C10.4744 50.3166 10.4897 50.073 10.4897 49.9228V44.4707C10.4897 44.3195 10.4548 44.3444 10.3189 44.4093C8.72672 45.1642 3.17723 48.2077 1.64641 49.0506C0.403007 49.7742 0.693709 51.719 2.92706 51.719H6.06739C6.21846 51.719 6.44046 51.7945 6.48383 51.9387C6.48383 51.9387 6.3733 63.2034 6.3733 63.2524C6.3733 64.1601 7.08715 64.8952 7.96774 64.8952C8.84833 64.8952 9.55264 64.1601 9.55264 63.2524C9.55264 63.1949 9.53461 58.3339 9.53461 58.3339C9.53461 58.183 9.65692 57.9874 9.80728 57.9857H14.9573C15.1078 57.9834 15.1613 58.0826 15.0819 58.211C14.5776 59.0257 13.2638 61.3576 12.6603 62.2886C12.1978 62.8988 12.2452 63.7703 12.8007 64.3257C13.408 64.933 14.4199 64.9563 15.0024 64.3235C15.0373 64.2851 16.7817 61.6158 17.7119 59.6958C17.7773 59.56 17.8297 59.5717 17.8297 59.7227C17.8309 61.0028 17.8421 62.4362 17.8809 63.19C17.8809 63.1938 17.8804 63.198 17.8804 63.202C17.8821 64.1177 18.7959 64.8609 19.6934 64.8609Z" fill="#01544C"/>
<path d="M34.6315 64.9992C35.9854 64.9992 37.1331 63.7537 37.1437 62.5261L37.1413 25.1813L41.5173 21.5631C41.8188 21.3141 42.0553 20.9953 42.2064 20.6347L45.7863 12.0867C46.3018 10.8557 45.7215 9.4399 44.4905 8.92437C43.5198 8.51701 42.4403 8.79922 41.7721 9.53794C41.5928 9.73567 41.4368 9.95932 41.328 10.2196L40.8802 11.289L35.7735 8.40671C35.5317 8.27037 35.2597 8.19873 34.9824 8.19873C34.9819 8.19873 34.9819 8.19873 34.9819 8.19873H27.3291C27.0423 8.19873 26.7613 8.27532 26.5139 8.42014L21.4686 11.3797L20.983 10.2196C20.9324 10.0979 20.8658 9.98807 20.7989 9.8799C20.1836 8.88996 18.9307 8.45891 17.8207 8.92437C16.5896 9.4399 16.0093 10.8557 16.5248 12.0867L20.1047 20.6347C20.2556 20.9953 20.4924 21.3141 20.7938 21.5631L25.8047 25.707C25.8125 25.7458 25.8176 62.4966 25.8176 62.4966C25.8239 63.7242 26.9214 64.9999 28.2752 64.9999C29.5288 64.9999 30.5582 63.9237 30.7114 62.7895C30.7316 62.6404 30.7288 42.7144 30.7288 42.7144C30.7288 42.5634 30.8511 42.4417 31.0015 42.4417H31.9564C32.1074 42.4417 32.2291 42.5641 32.2291 42.7144L32.2268 62.5367C32.2382 63.7643 33.2777 64.9992 34.6315 64.9992ZM27.9123 21.1772L24.333 18.217L22.725 14.3779L27.7669 11.42H34.5587L39.6271 14.2804L37.9787 18.2169L34.3993 21.1771H27.9123V21.1772Z" fill="#01544C"/>
<path d="M46.7679 26.1686C48.1725 26.1686 49.3111 25.0299 49.3111 23.6253C49.3111 22.2207 48.1725 21.082 46.7679 21.082C45.3633 21.082 44.2246 22.2207 44.2246 23.6253C44.2246 25.0299 45.3633 26.1686 46.7679 26.1686Z" fill="#01544C"/>
<path d="M65.0458 35.1761L64.617 33.1067L63.6203 28.297C63.6203 28.297 63.1539 26.0935 61.1741 26.0935C58.7796 26.0935 57.5496 26.0935 57.1682 26.0935C56.7869 26.0935 56.313 24.9053 55.9964 24.9053C55.6797 24.9053 52.776 24.9053 51.594 24.9053C50.4121 24.9053 50.0384 25.236 50.0384 25.236L49.8542 25.3853L46.5278 28.0795C46.5278 28.0795 46.3982 28.1956 46.2648 28.4282C46.1217 28.6766 45.9741 29.0586 45.9741 29.5866C45.9741 30.6075 45.9741 31.7229 45.9741 32.7575C45.9741 36.9492 49.3692 37.4866 49.3692 37.4866C49.3692 37.4866 49.5512 37.4866 49.8655 37.4866C49.8724 37.5171 49.8734 37.5492 49.865 37.582L47.4689 46.8591C47.4384 46.9767 47.5122 47.0725 47.6338 47.0725H50.5861C50.7078 47.0725 50.8065 47.1713 50.8065 47.293V62.4963C50.8065 62.6181 50.8053 62.7233 50.8047 62.7318C50.8041 62.7368 50.8041 62.7426 50.8041 62.7477C50.8041 63.9477 51.7772 64.9185 52.9771 64.9185C54.1773 64.9185 55.1029 63.9442 55.1029 62.7443C55.1029 62.5894 55.1029 62.4373 55.1029 62.2913V47.1663C55.1029 47.0446 55.2014 46.95 55.3231 46.9546L56.0945 46.985C56.2161 46.9896 56.3147 47.092 56.3147 47.2141V62.4961C56.3147 62.6178 56.3153 62.723 56.3165 62.7322C56.3176 62.7405 56.3187 62.7653 56.3192 62.7873C56.3198 62.8044 56.3198 62.8211 56.3198 62.8269C56.3198 64.0269 57.2217 64.9187 58.4219 64.9187C59.6219 64.9187 60.6271 63.9447 60.6271 62.7445C60.6271 62.5897 60.6113 62.4375 60.6113 62.2915V47.3107C60.6113 47.1889 60.7099 47.087 60.8315 47.0823L63.0812 47.0024C63.2028 46.9978 63.284 46.8976 63.2626 46.7776L61.5984 37.4876C61.821 37.4876 62.0214 37.4876 62.1949 37.4876C65.6357 37.4872 65.0458 35.1761 65.0458 35.1761Z" fill="#01544C"/>
<path d="M55.9503 23.6252C58.1776 23.6252 59.9831 21.8197 59.9831 19.5924C59.9831 17.3651 58.1776 15.5596 55.9503 15.5596C53.723 15.5596 51.9175 17.3651 51.9175 19.5924C51.9175 21.8197 53.723 23.6252 55.9503 23.6252Z" fill="#01544C"/>
</g>
<defs>
<clipPath id="clip0_7141_6792">
<rect width="65" height="65" fill="white" transform="translate(0.5)"/>
</clipPath>
</defs>
</svg>
