<svg width="96" height="57" viewBox="0 0 96 57" fill="none" xmlns="http://www.w3.org/2000/svg">
<path d="M49.52 19C49.1083 19.0127 48.7125 19.1837 48.4212 19.4813L40.0675 27.8097L34.9217 22.6797C33.4808 21.1787 31.1533 23.4967 32.6575 24.9343L38.937 31.198C39.5608 31.8218 40.5742 31.8218 41.2012 31.198L50.6853 21.7392C51.7303 20.7258 50.9608 19 49.5232 19H49.52ZM2.08333 31.6667H11.5833C12.4605 31.6667 13.1667 32.3728 13.1667 33.25C13.1667 34.1272 12.4605 34.8333 11.5833 34.8333H2.08333C1.20617 34.8333 0.5 34.1272 0.5 33.25C0.5 32.3728 1.20617 31.6667 2.08333 31.6667ZM2.08333 19H11.5833C12.4605 19 13.1667 19.7062 13.1667 20.5833C13.1667 21.4605 12.4605 22.1667 11.5833 22.1667H2.08333C1.20617 22.1667 0.5 21.4605 0.5 20.5833C0.5 19.7062 1.20617 19 2.08333 19ZM2.08333 6.33333H11.5833C12.4605 6.33333 13.1667 7.0395 13.1667 7.91667C13.1667 8.79383 12.4605 9.5 11.5833 9.5H2.08333C1.20617 9.5 0.5 8.79383 0.5 7.91667C0.5 7.0395 1.20617 6.33333 2.08333 6.33333ZM78.0833 41.1667C73.7292 41.1667 70.1667 44.7292 70.1667 49.0833C70.1667 53.4375 73.7292 57 78.0833 57C82.4375 57 86 53.4375 86 49.0833C86 44.7292 82.4375 41.1667 78.0833 41.1667ZM78.0833 44.3333C80.7243 44.3333 82.8333 46.4423 82.8333 49.0833C82.8333 51.7243 80.7243 53.8333 78.0833 53.8333C75.4423 53.8333 73.3333 51.7243 73.3333 49.0833C73.3333 46.4423 75.4423 44.3333 78.0833 44.3333ZM36.9167 41.1667C32.5625 41.1667 29 44.7292 29 49.0833C29 53.4375 32.5625 57 36.9167 57C41.2708 57 44.8333 53.4375 44.8333 49.0833C44.8333 44.7292 41.2708 41.1667 36.9167 41.1667ZM36.9167 44.3333C39.5577 44.3333 41.6667 46.4423 41.6667 49.0833C41.6667 51.7243 39.5577 53.8333 36.9167 53.8333C34.2757 53.8333 32.1667 51.7243 32.1667 49.0833C32.1667 46.4423 34.2757 44.3333 36.9167 44.3333ZM21.0833 0C18.4803 0 16.3333 2.147 16.3333 4.75V39.5833C16.3333 42.1863 18.4803 44.3333 21.0833 44.3333H27.4167C29.5573 44.365 29.5573 41.135 27.4167 41.1667H21.0833C20.1777 41.1667 19.5 40.489 19.5 39.5833V4.75C19.5 3.84433 20.1777 3.16667 21.0833 3.16667H62.25C63.1557 3.16667 63.8333 3.84433 63.8333 4.75V41.1667H46.4167C44.3267 41.1667 44.3647 44.365 46.4167 44.3333H68.5833C70.6733 44.3333 70.6543 41.1667 68.5833 41.1667H67V12.6667H80.3855L92.3333 31.3373V39.5833C92.3333 40.489 91.6557 41.1667 90.75 41.1667H87.5833C85.5123 41.1667 85.5123 44.3333 87.5833 44.3333H90.75C93.353 44.3333 95.5 42.1863 95.5 39.5833V30.875C95.5 30.5742 95.4145 30.2733 95.253 30.02L82.5863 10.2283C82.295 9.7755 81.7947 9.5 81.25 9.5H67V4.75C67 2.147 64.853 0 62.25 0H21.0833Z" fill="#01544C"/>
</svg>
