<svg width="66" height="65" viewBox="0 0 66 65" fill="none" xmlns="http://www.w3.org/2000/svg">
<g clip-path="url(#clip0_7141_6746)">
<path d="M56.2143 25.0135C56.2143 12.1296 45.8259 1.74121 33 1.74121C20.1741 1.74121 9.78571 12.1296 9.78571 24.9555C9.78571 24.9555 9.78571 24.9555 9.78571 25.0135C4.62054 25.3037 0.5 29.5984 0.5 34.8216V35.9823C0.5 41.4376 4.91071 45.8484 10.3661 45.8484H10.8884L15.0089 52.4064C17.9107 57.0492 22.8438 59.7769 28.2991 59.7769H29.1116C29.6339 61.7501 31.433 63.2591 33.5804 63.2591C36.1339 63.2591 38.2232 61.1698 38.2232 58.6162C38.2232 56.0626 36.1339 53.9734 33.5804 53.9734C31.433 53.9734 29.6339 55.4823 29.1116 57.4555H28.2991C23.6563 57.4555 19.4196 55.076 16.9821 51.1296L13.6161 45.8484H14.4286C15.7054 45.8484 16.75 44.8037 16.75 43.5269V27.2769C16.75 26.0001 15.7054 24.9555 14.4286 24.9555H12.1071C12.1071 13.4064 21.4509 4.06264 33 4.06264C44.5491 4.06264 53.8929 13.4064 53.8929 24.9555H51.5714C50.2946 24.9555 49.25 26.0001 49.25 27.2769V43.5269C49.25 44.8037 50.2946 45.8484 51.5714 45.8484H55.6339C61.0893 45.8484 65.5 41.4376 65.5 35.9823V34.8216C65.5 29.5984 61.3795 25.3037 56.2143 25.0135ZM33.5804 56.2948C34.8571 56.2948 35.9018 57.3394 35.9018 58.6162C35.9018 59.893 34.8571 60.9376 33.5804 60.9376C32.3036 60.9376 31.2589 59.893 31.2589 58.6162C31.2589 57.3394 32.3036 56.2948 33.5804 56.2948ZM14.4286 27.2769V43.5269H10.3661C6.1875 43.5269 2.82143 40.1609 2.82143 35.9823V34.8216C2.82143 30.643 6.1875 27.2769 10.3661 27.2769H14.4286ZM63.1786 35.9823C63.1786 40.1609 59.8125 43.5269 55.6339 43.5269H51.5714V27.2769H55.6339C59.8125 27.2769 63.1786 30.643 63.1786 34.8216V35.9823Z" fill="#01544C"/>
<path d="M42.634 10.5046C42.518 10.4466 42.3439 10.3305 42.1698 10.2144C41.9956 10.0984 41.8215 9.98231 41.7055 9.92427C41.1831 9.57606 40.4287 9.75016 40.1385 10.3305C39.8483 10.9109 39.9644 11.5493 40.5447 11.8975C40.6608 11.9555 40.8349 12.0716 41.009 12.1877C41.1831 12.3037 41.3572 12.4198 41.5314 12.4778C41.7055 12.5939 41.9376 12.6519 42.1117 12.6519C42.518 12.6519 42.8662 12.4778 43.0983 12.0716C43.3885 11.5493 43.2144 10.8528 42.634 10.5046Z" fill="#01544C"/>
<path d="M33 7.54492C28.0669 7.54492 23.4241 9.69224 20.2321 13.4065C19.8259 13.8708 19.8839 14.6253 20.3482 15.0315C20.5803 15.2056 20.8125 15.3217 21.1027 15.3217C21.4509 15.3217 21.7411 15.2056 21.9732 14.9155C24.7589 11.7235 28.7634 9.86635 33 9.86635C34.0446 9.86635 35.0893 9.98242 36.1339 10.2146C36.7723 10.3306 37.3527 9.92439 37.5268 9.34403C37.7009 8.76367 37.2366 8.12528 36.6562 7.95117C35.4375 7.66099 34.2187 7.54492 33 7.54492Z" fill="#01544C"/>
</g>
<defs>
<clipPath id="clip0_7141_6746">
<rect width="65" height="65" fill="white" transform="translate(0.5)"/>
</clipPath>
</defs>
</svg>
